<?xml version="1.0" encoding="UTF-8"?>
<svg xmlns="http://www.w3.org/2000/svg" xmlns:xlink="http://www.w3.org/1999/xlink" viewBox="0 0 586.01 368.9">
  <defs>
    <style>
      .cls-1 {
        fill: url(#Degradado_sin_nombre_239-4);
      }

      .cls-1, .cls-2, .cls-3, .cls-4, .cls-5, .cls-6, .cls-7, .cls-8, .cls-9, .cls-10, .cls-11, .cls-12, .cls-13, .cls-14 {
        mix-blend-mode: screen;
      }

      .cls-15 {
        fill: url(#Degradado_sin_nombre_365);
      }

      .cls-2 {
        fill: url(#Degradado_sin_nombre_259-3);
      }

      .cls-3 {
        fill: url(#Degradado_sin_nombre_259-2);
      }

      .cls-16, .cls-17, .cls-18 {
        fill: #fff;
      }

      .cls-4 {
        fill: url(#Degradado_sin_nombre_95-3);
      }

      .cls-5 {
        fill: url(#Degradado_sin_nombre_30);
      }

      .cls-6 {
        fill: url(#Degradado_sin_nombre_259);
      }

      .cls-7 {
        fill: url(#Degradado_sin_nombre_95);
      }

      .cls-8 {
        fill: url(#Degradado_sin_nombre_95-4);
      }

      .cls-19, .cls-20 {
        fill: none;
      }

      .cls-9 {
        fill: url(#Degradado_sin_nombre_239-3);
      }

      .cls-21 {
        fill: url(#Degradado_sin_nombre_186);
      }

      .cls-10 {
        fill: url(#Degradado_sin_nombre_239-2);
      }

      .cls-22 {
        isolation: isolate;
      }

      .cls-23 {
        letter-spacing: -.01em;
      }

      .cls-11 {
        fill: url(#Degradado_sin_nombre_31);
      }

      .cls-17 {
        font-family: FuturaLTPaneuropean-Book, 'Futura LT Paneuropean';
        font-size: 35px;
      }

      .cls-12 {
        fill: url(#Degradado_sin_nombre_239);
      }

      .cls-13 {
        fill: url(#Degradado_sin_nombre_95-2);
      }

      .cls-18 {
        font-family: SegoeUIVariable-BoldSmall, 'Segoe UI Variable';
        font-size: 67px;
        font-variation-settings: 'wght' 700, 'opsz' 8;
        font-weight: 700;
      }

      .cls-24 {
        fill: url(#Degradado_sin_nombre_186-2);
      }

      .cls-25 {
        fill: url(#Degradado_sin_nombre_15);
      }

      .cls-14 {
        fill: url(#Degradado_sin_nombre_259-4);
      }

      .cls-26 {
        clip-path: url(#clippath);
      }

      .cls-20 {
        stroke: url(#Degradado_sin_nombre_342);
        stroke-miterlimit: 10;
        stroke-width: 2.83px;
      }
    </style>
    <radialGradient id="Degradado_sin_nombre_15" data-name="Degradado sin nombre 15" cx="293" cy="184.45" fx="552.22" fy="-53.07" r="383.51" gradientUnits="userSpaceOnUse">
      <stop offset="0" stop-color="#005c7f"/>
      <stop offset="1" stop-color="#001c26"/>
    </radialGradient>
    <radialGradient id="Degradado_sin_nombre_259" data-name="Degradado sin nombre 259" cx="22917.06" cy="-4906.06" fx="22917.06" fy="-4906.06" r="16.67" gradientTransform="translate(-3687.38 2732.83) rotate(38.23) scale(.06 .91) skewX(-.09)" gradientUnits="userSpaceOnUse">
      <stop offset="0" stop-color="#fff"/>
      <stop offset=".12" stop-color="#fff" stop-opacity=".77"/>
      <stop offset=".25" stop-color="#fff" stop-opacity=".57"/>
      <stop offset=".37" stop-color="#fff" stop-opacity=".4"/>
      <stop offset=".5" stop-color="#fff" stop-opacity=".25"/>
      <stop offset=".62" stop-color="#fff" stop-opacity=".14"/>
      <stop offset=".75" stop-color="#fff" stop-opacity=".06"/>
      <stop offset=".87" stop-color="#fff" stop-opacity=".02"/>
      <stop offset="1" stop-color="#fff" stop-opacity="0"/>
    </radialGradient>
    <radialGradient id="Degradado_sin_nombre_259-2" data-name="Degradado sin nombre 259" cx="-161087.01" cy="14551.85" fx="-161087.01" fy="14551.85" r="16.67" gradientTransform="translate(-8129.77 13816.45) rotate(176.15) scale(.06 .91) skewX(-.09)" xlink:href="#Degradado_sin_nombre_259"/>
    <radialGradient id="Degradado_sin_nombre_239" data-name="Degradado sin nombre 239" cx="107216.32" cy="3124.55" fx="107216.32" fy="3124.55" r="16.67" gradientTransform="translate(-7223.38 2012.02) rotate(-51.77) scale(.06 1.45) skewX(-.05)" gradientUnits="userSpaceOnUse">
      <stop offset="0" stop-color="#fff"/>
      <stop offset=".05" stop-color="#fff" stop-opacity=".92"/>
      <stop offset=".2" stop-color="#fff" stop-opacity=".68"/>
      <stop offset=".35" stop-color="#fff" stop-opacity=".47"/>
      <stop offset=".5" stop-color="#fff" stop-opacity=".3"/>
      <stop offset=".64" stop-color="#fff" stop-opacity=".17"/>
      <stop offset=".77" stop-color="#fff" stop-opacity=".08"/>
      <stop offset=".9" stop-color="#fff" stop-opacity=".02"/>
      <stop offset="1" stop-color="#fff" stop-opacity="0"/>
    </radialGradient>
    <radialGradient id="Degradado_sin_nombre_239-2" data-name="Degradado sin nombre 239" cx="26930.41" cy="8089.48" fx="26930.41" fy="8089.48" r="16.67" gradientTransform="translate(-11331.05 3051.54) rotate(-97.35) scale(.06 1.45) skewX(-.05)" xlink:href="#Degradado_sin_nombre_239"/>
    <radialGradient id="Degradado_sin_nombre_30" data-name="Degradado sin nombre 30" cx="-438.66" cy="-1322.03" fx="-438.66" fy="-1322.03" r="5.36" gradientTransform="translate(675.17 1303.37) rotate(-6.77)" gradientUnits="userSpaceOnUse">
      <stop offset="0" stop-color="#fff"/>
      <stop offset=".04" stop-color="#fff" stop-opacity=".85"/>
      <stop offset=".1" stop-color="#fff" stop-opacity=".67"/>
      <stop offset=".16" stop-color="#fff" stop-opacity=".51"/>
      <stop offset=".23" stop-color="#fff" stop-opacity=".37"/>
      <stop offset=".3" stop-color="#fff" stop-opacity=".26"/>
      <stop offset=".38" stop-color="#fff" stop-opacity=".16"/>
      <stop offset=".47" stop-color="#fff" stop-opacity=".09"/>
      <stop offset=".57" stop-color="#fff" stop-opacity=".04"/>
      <stop offset=".71" stop-color="#fff" stop-opacity="0"/>
      <stop offset=".99" stop-color="#fff" stop-opacity="0"/>
    </radialGradient>
    <radialGradient id="Degradado_sin_nombre_95" data-name="Degradado sin nombre 95" cx="-438.47" cy="-1322.76" fx="-438.47" fy="-1322.76" r="5.36" gradientTransform="translate(675.17 1303.37) rotate(-6.77)" gradientUnits="userSpaceOnUse">
      <stop offset="0" stop-color="#fff"/>
      <stop offset=".04" stop-color="#fff" stop-opacity=".85"/>
      <stop offset=".1" stop-color="#fff" stop-opacity=".67"/>
      <stop offset=".16" stop-color="#fff" stop-opacity=".51"/>
      <stop offset=".23" stop-color="#fff" stop-opacity=".37"/>
      <stop offset=".3" stop-color="#fff" stop-opacity=".26"/>
      <stop offset=".38" stop-color="#fff" stop-opacity=".16"/>
      <stop offset=".47" stop-color="#fff" stop-opacity=".09"/>
      <stop offset=".58" stop-color="#fff" stop-opacity=".04"/>
      <stop offset=".71" stop-color="#fff" stop-opacity="0"/>
      <stop offset="1" stop-color="#fff" stop-opacity="0"/>
    </radialGradient>
    <radialGradient id="Degradado_sin_nombre_95-2" data-name="Degradado sin nombre 95" cx="-437.86" cy="-1322.78" fx="-437.86" fy="-1322.78" r="5.36" xlink:href="#Degradado_sin_nombre_95"/>
    <radialGradient id="Degradado_sin_nombre_95-3" data-name="Degradado sin nombre 95" cx="-438.72" cy="-1322.44" fx="-438.72" fy="-1322.44" r="5.36" xlink:href="#Degradado_sin_nombre_95"/>
    <radialGradient id="Degradado_sin_nombre_95-4" data-name="Degradado sin nombre 95" cx="-438.32" cy="-1322.39" fx="-438.32" fy="-1322.39" r="10.57" xlink:href="#Degradado_sin_nombre_95"/>
    <radialGradient id="Degradado_sin_nombre_259-3" data-name="Degradado sin nombre 259" cx="37543.28" cy="-2744.01" fx="37543.28" fy="-2744.01" r="16.67" gradientTransform="translate(-2890.15 1405.68) rotate(24.85) scale(.06 .91) skewX(-.09)" xlink:href="#Degradado_sin_nombre_259"/>
    <radialGradient id="Degradado_sin_nombre_259-4" data-name="Degradado sin nombre 259" cx="-148742.8" cy="12335.16" fx="-148742.8" fy="12335.16" r="16.67" gradientTransform="translate(-4648.95 13216.19) rotate(162.78) scale(.06 .91) skewX(-.09)" xlink:href="#Degradado_sin_nombre_259"/>
    <radialGradient id="Degradado_sin_nombre_239-3" data-name="Degradado sin nombre 239" cx="72593.42" cy="3696.57" fx="72593.42" fy="3696.57" r="16.67" gradientTransform="translate(-6496.99 1522.14) rotate(-65.15) scale(.06 1.45) skewX(-.05)" xlink:href="#Degradado_sin_nombre_239"/>
    <radialGradient id="Degradado_sin_nombre_239-4" data-name="Degradado sin nombre 239" cx="-7747.97" cy="7522.54" fx="-7747.97" fy="7522.54" r="16.67" gradientTransform="translate(-10252.91 3483.41) rotate(-110.72) scale(.06 1.45) skewX(-.05)" xlink:href="#Degradado_sin_nombre_239"/>
    <radialGradient id="Degradado_sin_nombre_31" data-name="Degradado sin nombre 31" cx="-1239.08" cy="649.38" fx="-1239.08" fy="649.38" r="5.36" gradientTransform="translate(1023.57 -993.9) rotate(-20.14)" gradientUnits="userSpaceOnUse">
      <stop offset="0" stop-color="#fff"/>
      <stop offset=".15" stop-color="#fff" stop-opacity=".77"/>
      <stop offset=".32" stop-color="#fff" stop-opacity=".54"/>
      <stop offset=".49" stop-color="#fff" stop-opacity=".34"/>
      <stop offset=".64" stop-color="#fff" stop-opacity=".19"/>
      <stop offset=".78" stop-color="#fff" stop-opacity=".09"/>
      <stop offset=".91" stop-color="#fff" stop-opacity=".02"/>
      <stop offset="1" stop-color="#fff" stop-opacity="0"/>
    </radialGradient>
    <linearGradient id="Degradado_sin_nombre_186" data-name="Degradado sin nombre 186" x1="50.21" y1="144.76" x2="111.84" y2="144.76" gradientUnits="userSpaceOnUse">
      <stop offset="0" stop-color="#dbb15a"/>
      <stop offset="1" stop-color="#a17748"/>
    </linearGradient>
    <linearGradient id="Degradado_sin_nombre_186-2" data-name="Degradado sin nombre 186" x1="108.66" y1="144.7" x2="47.05" y2="144.84" xlink:href="#Degradado_sin_nombre_186"/>
    <clipPath id="clippath">
      <rect class="cls-19" x="0" y=".45" width="586" height="368" rx="32.48" ry="32.48"/>
    </clipPath>
    <radialGradient id="Degradado_sin_nombre_365" data-name="Degradado sin nombre 365" cx="801.68" cy="342.39" fx="1121.59" fy="49.26" r="473.3" gradientTransform="translate(-420.76 181.68) scale(.89 .84)" gradientUnits="userSpaceOnUse">
      <stop offset="0" stop-color="#007599"/>
      <stop offset="1" stop-color="#001c26"/>
    </radialGradient>
    <linearGradient id="Degradado_sin_nombre_342" data-name="Degradado sin nombre 342" x1="30.76" y1="317.04" x2="557.74" y2="317.04" gradientUnits="userSpaceOnUse">
      <stop offset="0" stop-color="#5e5e5e"/>
      <stop offset=".29" stop-color="#adadad"/>
      <stop offset=".65" stop-color="#fff"/>
    </linearGradient>
  </defs>
  <g class="cls-22">
    <g id="Layer_1">
      <rect class="cls-25" x="0" y=".45" width="586" height="368" rx="32.48" ry="32.48"/>
      <g>
        <g>
          <g>
            <path class="cls-6" d="M84.82,42.49c-5.17,6.56-9.69,11.61-10.1,11.29-.41-.32,3.45-5.9,8.61-12.46,5.17-6.56,9.69-11.61,10.1-11.29.41.32-3.45,5.9-8.61,12.46Z"/>
            <path class="cls-3" d="M83.13,41.97c-.56-8.33-.59-15.11-.07-15.15.52-.04,1.4,6.69,1.96,15.02.56,8.33.59,15.11.07,15.15-.52.04-1.4-6.69-1.96-15.02Z"/>
            <path class="cls-12" d="M84.66,41.17c10.47,8.25,18.7,15.27,18.37,15.67s-9.07-5.94-19.54-14.19c-10.47-8.25-18.7-15.26-18.37-15.67.32-.41,9.07,5.94,19.54,14.19Z"/>
            <path class="cls-10" d="M83.95,40.97c13.22-1.71,23.99-2.67,24.06-2.15s-10.6,2.32-23.81,4.02c-13.22,1.71-23.99,2.67-24.06,2.15-.07-.52,10.6-2.32,23.81-4.02Z"/>
            <path class="cls-5" d="M89.1,41.67c.35,2.94-1.75,5.61-4.69,5.95-2.94.35-5.61-1.75-5.96-4.69-.35-2.94,1.75-5.61,4.69-5.96,2.94-.35,5.61,1.75,5.96,4.69Z"/>
            <path class="cls-7" d="M89.2,40.92c.35,2.94-1.75,5.61-4.69,5.96-2.94.35-5.61-1.75-5.95-4.69-.35-2.94,1.75-5.61,4.69-5.96,2.94-.35,5.61,1.75,5.96,4.69Z"/>
            <path class="cls-13" d="M89.81,40.83c.35,2.94-1.75,5.61-4.69,5.96-2.94.35-5.61-1.75-5.96-4.69-.35-2.94,1.75-5.61,4.69-5.96,2.94-.35,5.61,1.75,5.96,4.69Z"/>
            <path class="cls-4" d="M89,41.28c.35,2.94-1.75,5.61-4.69,5.96-2.94.35-5.61-1.75-5.96-4.69-.35-2.94,1.75-5.61,4.69-5.96,2.94-.35,5.61,1.75,5.96,4.69Z"/>
            <path class="cls-8" d="M94.57,40.67c.69,5.79-3.45,11.05-9.25,11.74-5.79.69-11.05-3.45-11.74-9.25-.69-5.79,3.45-11.05,9.25-11.74,5.79-.69,11.05,3.45,11.74,9.25Z"/>
          </g>
          <g>
            <path class="cls-2" d="M84.93,42.31c-3.51,7.58-6.74,13.54-7.21,13.32-.47-.22,1.99-6.54,5.5-14.11,3.51-7.58,6.74-13.54,7.21-13.32.47.22-1.99,6.54-5.5,14.11Z"/>
            <path class="cls-14" d="M83.17,42.19c-2.47-7.98-4.07-14.57-3.57-14.72.5-.15,2.91,6.19,5.38,14.16,2.47,7.98,4.07,14.57,3.57,14.72-.5.15-2.91-6.19-5.38-14.16Z"/>
            <path class="cls-9" d="M84.47,41.05c12.09,5.6,21.72,10.53,21.5,11s-10.2-3.69-22.29-9.29c-12.09-5.6-21.72-10.53-21.5-11,.22-.47,10.2,3.69,22.29,9.29Z"/>
            <path class="cls-1" d="M83.74,41.03c12.47-4.72,22.72-8.14,22.91-7.66s-9.77,4.71-22.24,9.42c-12.47,4.72-22.72,8.14-22.91,7.66-.18-.49,9.77-4.71,22.24-9.42Z"/>
            <path class="cls-11" d="M88.91,40.51c1.02,2.78-.41,5.86-3.19,6.88-2.78,1.02-5.86-.41-6.88-3.19-1.02-2.78.41-5.86,3.19-6.88,2.78-1.02,5.86.41,6.88,3.19Z"/>
          </g>
        </g>
        <g>
          <g>
            <path class="cls-16" d="M74.34,41.01c-6.62,0-12.75,2.13-17.73,5.74l-.12-13.86h16.34v-3.5h-20.2v25.97c.81-1.09,1.7-2.14,2.68-3.11,5.08-5.08,11.84-7.88,19.03-7.88s13.95,2.8,19.03,7.88c5.08,5.08,7.88,11.84,7.88,19.03s-2.8,13.95-7.88,19.03c-.08.08-.16.15-.23.23h4.55c4.32-5.23,6.92-11.94,6.92-19.26,0-16.72-13.55-30.27-30.27-30.27Z"/>
            <path class="cls-16" d="M102.15,28.79c-8.46,0-15.8,4.81-19.43,11.84,1.11.29,2.19.64,3.25,1.05,3.16-5.68,9.23-9.53,16.18-9.53,10.21,0,18.51,8.3,18.51,18.51,0,8.89-6.3,16.33-14.66,18.11.1,1.02.15,2.06.15,3.11,0,.09,0,.19,0,.28,10.16-1.88,17.86-10.79,17.86-21.5,0-12.07-9.79-21.86-21.86-21.86Z"/>
          </g>
          <g>
            <path class="cls-16" d="M58.93,81.16c.66.62,1,1.46,1,2.51s-.33,1.88-1,2.51c-.66.62-1.43.93-2.3.93h-1.28v3.41h-2.72v-10.3h4c.87,0,1.64.31,2.3.93ZM56.82,84.27c.16-.16.25-.36.25-.59s-.08-.43-.25-.6c-.16-.16-.36-.25-.6-.25h-.87v1.68h.87c.23,0,.43-.08.6-.24Z"/>
            <path class="cls-16" d="M63.71,87.93h3.45v2.6h-6.17v-10.3h2.72v7.69Z"/>
            <path class="cls-16" d="M77.89,90.53h-2.79l-.72-1.92h-3.11l-.72,1.92h-2.79l3.78-10.3h2.57l3.78,10.3ZM72.1,86.33h1.46l-.74-2.55-.72,2.55Z"/>
            <path class="cls-16" d="M85.44,85.87v-5.64h2.74v10.3h-2.48l-4.46-5.64v5.64h-2.74v-10.3h2.48l4.47,5.64Z"/>
          </g>
        </g>
      </g>
      <rect class="cls-21" x="50.21" y="121.09" width="61.62" height="47.35" rx="6.81" ry="6.81"/>
      <path class="cls-24" d="M50.21,163.44c0-12.45,0-24.9,0-37.35.03-.06.08-.12.09-.18.66-2.91,3.3-4.81,6.75-4.81,15.98,0,31.97,0,47.95,0,3.87,0,6.82,2.5,6.82,5.79.01,11.92.01,23.84,0,35.76,0,.62-.12,1.26-.34,1.85-.9,2.41-3.45,3.94-6.53,3.94-6.46,0-12.92,0-19.37,0-9.47,0-18.93,0-28.4,0-2.74,0-4.83-1.01-6.15-3.04-.39-.6-.55-1.3-.81-1.95ZM74.23,152.13c-.68,2.66-2.59,4.27-5.69,4.83v9.8h24.96v-9.81c-3.24-.67-4.75-1.95-5.71-4.83h-13.57ZM68.52,132.56c3.17.58,5.05,2.21,5.71,4.83h13.58c.67-2.67,2.58-4.27,5.69-4.83v-9.8h-24.98v9.8ZM72.3,143.92c.03-.07.05-.1.05-.13,0-1.77,0-3.54,0-5.3,0-2.61-2.03-4.34-5.13-4.34-4.81,0-9.62,0-14.44,0h-.63v9.77h20.13ZM109.87,143.92v-9.75c-.1-.01-.16-.02-.22-.02-5.09,0-10.19-.02-15.28,0-2.56.01-4.63,1.81-4.67,3.99-.02,1.1,0,2.21,0,3.31,0,.81,0,1.62,0,2.45h20.18ZM52.16,155.37h.48c4.93,0,9.86,0,14.8,0,2.81,0,4.9-1.78,4.91-4.16.01-1.73,0-3.47,0-5.2,0-.13-.02-.26-.03-.4h-20.17v9.76ZM89.69,145.59c0,.21,0,.38,0,.54,0,1.63,0,3.26,0,4.9,0,2.62,2.03,4.34,5.12,4.35,4.81,0,9.62,0,14.44,0h.61v-9.79h-20.17ZM74.32,139.07v11.36h13.41v-11.36h-13.41ZM66.54,132.49v-9.76c-3.37,0-6.7-.07-10.02.02-2.41.07-4.32,1.87-4.37,3.92-.03,1.21,0,2.41,0,3.62,0,.73,0,1.45,0,2.2h14.4ZM109.91,132.51c0-.21,0-.38,0-.54,0-1.65,0-3.3,0-4.95,0-2.55-2.05-4.29-5.06-4.3-2.91,0-5.81,0-8.72,0-.21,0-.42,0-.61,0v9.79h14.39ZM66.55,157.04h-14.4c0,2.02-.07,4.01.02,6,.09,2.03,2.17,3.72,4.58,3.75,3.23.04,6.46,0,9.68,0,.03,0,.07-.03.13-.05v-9.69ZM95.49,166.8h.58c2.95,0,5.89,0,8.84,0,2.92,0,4.99-1.76,5-4.25,0-1.68,0-3.37,0-5.05,0-.16,0-.32,0-.47h-14.42v9.77Z"/>
      <text class="cls-18" transform="translate(501.12 64.32)"><tspan x="0" y="0">α</tspan></text>
      <text class="cls-17" transform="translate(441.94 96.75)"><tspan x="0" y="0">Li</tspan><tspan class="cls-23" x="22.29" y="0">c</tspan><tspan x="38.54" y="0">ense</tspan></text>
      <g class="cls-26">
        <g>
          <ellipse class="cls-15" cx="293" cy="470.73" rx="268.82" ry="254.89"/>
          <path class="cls-20" d="M32.13,408.97c29.11-110.93,134.87-193.14,260.87-193.14s238.29,87.37,263.35,203.52"/>
        </g>
      </g>
    </g>
  </g>
</svg>