<?xml version="1.0" encoding="UTF-8"?>
<svg xmlns="http://www.w3.org/2000/svg" xmlns:xlink="http://www.w3.org/1999/xlink" viewBox="0 0 586.01 368.9">
  <defs>
    <style>
      .cls-1 {
        fill: url(#Degradado_sin_nombre_239-4);
      }

      .cls-1, .cls-2, .cls-3, .cls-4, .cls-5, .cls-6, .cls-7, .cls-8, .cls-9, .cls-10, .cls-11, .cls-12, .cls-13, .cls-14 {
        mix-blend-mode: screen;
      }

      .cls-15 {
        fill: url(#Degradado_sin_nombre_777);
      }

      .cls-16 {
        fill: url(#Degradado_sin_nombre_365);
      }

      .cls-2 {
        fill: url(#Degradado_sin_nombre_259-3);
      }

      .cls-3 {
        fill: url(#Degradado_sin_nombre_259-2);
      }

      .cls-17 {
        fill: url(#Degradado_sin_nombre_364);
        opacity: .25;
      }

      .cls-18, .cls-19, .cls-20 {
        fill: #fff;
      }

      .cls-4 {
        fill: url(#Degradado_sin_nombre_95-3);
      }

      .cls-5 {
        fill: url(#Degradado_sin_nombre_30);
      }

      .cls-6 {
        fill: url(#Degradado_sin_nombre_259);
      }

      .cls-7 {
        fill: url(#Degradado_sin_nombre_95);
      }

      .cls-8 {
        fill: url(#Degradado_sin_nombre_95-4);
      }

      .cls-21, .cls-22, .cls-23 {
        fill: none;
      }

      .cls-9 {
        fill: url(#Degradado_sin_nombre_239-3);
      }

      .cls-24 {
        fill: url(#Degradado_sin_nombre_186);
      }

      .cls-10 {
        fill: url(#Degradado_sin_nombre_239-2);
      }

      .cls-25 {
        clip-path: url(#clippath-1);
      }

      .cls-26 {
        fill: url(#Degradado_sin_nombre_347);
      }

      .cls-27 {
        isolation: isolate;
      }

      .cls-28 {
        letter-spacing: -.01em;
      }

      .cls-11 {
        fill: url(#Degradado_sin_nombre_31);
      }

      .cls-19 {
        font-family: FuturaLTPaneuropean-Book, 'Futura LT Paneuropean';
        font-size: 35px;
      }

      .cls-22 {
        opacity: .1;
        stroke: url(#Degradado_sin_nombre_357);
      }

      .cls-22, .cls-23 {
        stroke-miterlimit: 10;
        stroke-width: 3px;
      }

      .cls-12 {
        fill: url(#Degradado_sin_nombre_239);
      }

      .cls-29 {
        fill: url(#Degradado_sin_nombre_356);
      }

      .cls-13 {
        fill: url(#Degradado_sin_nombre_95-2);
      }

      .cls-20 {
        font-family: SegoeUIVariable-BoldSmall, 'Segoe UI Variable';
        font-size: 67px;
        font-variation-settings: 'wght' 700, 'opsz' 8;
        font-weight: 700;
      }

      .cls-30 {
        fill: url(#Degradado_sin_nombre_186-2);
      }

      .cls-14 {
        fill: url(#Degradado_sin_nombre_259-4);
      }

      .cls-31 {
        clip-path: url(#clippath);
      }

      .cls-23 {
        stroke: url(#Degradado_sin_nombre_862);
      }
    </style>
    <radialGradient id="Degradado_sin_nombre_347" data-name="Degradado sin nombre 347" cx="293.01" cy="184.9" fx="552.22" fy="-52.62" r="383.51" gradientUnits="userSpaceOnUse">
      <stop offset="0" stop-color="#d4d4d4"/>
      <stop offset="1" stop-color="#001c26"/>
    </radialGradient>
    <radialGradient id="Degradado_sin_nombre_259" data-name="Degradado sin nombre 259" cx="27541.88" cy="-4962.06" fx="27541.88" fy="-4962.06" r="16.67" gradientTransform="translate(-3924.46 2611.16) rotate(38.23) scale(.06 .91) skewX(-.09)" gradientUnits="userSpaceOnUse">
      <stop offset="0" stop-color="#fff"/>
      <stop offset=".12" stop-color="#fff" stop-opacity=".77"/>
      <stop offset=".25" stop-color="#fff" stop-opacity=".57"/>
      <stop offset=".37" stop-color="#fff" stop-opacity=".4"/>
      <stop offset=".5" stop-color="#fff" stop-opacity=".25"/>
      <stop offset=".62" stop-color="#fff" stop-opacity=".14"/>
      <stop offset=".75" stop-color="#fff" stop-opacity=".06"/>
      <stop offset=".87" stop-color="#fff" stop-opacity=".02"/>
      <stop offset="1" stop-color="#fff" stop-opacity="0"/>
    </radialGradient>
    <radialGradient id="Degradado_sin_nombre_259-2" data-name="Degradado sin nombre 259" cx="-160585.97" cy="13663.63" fx="-160585.97" fy="13663.63" r="16.67" gradientTransform="translate(-8155.46 13011.59) rotate(176.15) scale(.06 .91) skewX(-.09)" xlink:href="#Degradado_sin_nombre_259"/>
    <radialGradient id="Degradado_sin_nombre_239" data-name="Degradado sin nombre 239" cx="101345.59" cy="2882.83" fx="101345.59" fy="2882.83" r="16.67" gradientTransform="translate(-6742.96 1967.84) rotate(-51.77) scale(.06 1.45) skewX(-.05)" gradientUnits="userSpaceOnUse">
      <stop offset="0" stop-color="#fff"/>
      <stop offset=".05" stop-color="#fff" stop-opacity=".92"/>
      <stop offset=".2" stop-color="#fff" stop-opacity=".68"/>
      <stop offset=".35" stop-color="#fff" stop-opacity=".47"/>
      <stop offset=".5" stop-color="#fff" stop-opacity=".3"/>
      <stop offset=".64" stop-color="#fff" stop-opacity=".17"/>
      <stop offset=".77" stop-color="#fff" stop-opacity=".08"/>
      <stop offset=".9" stop-color="#fff" stop-opacity=".02"/>
      <stop offset="1" stop-color="#fff" stop-opacity="0"/>
    </radialGradient>
    <radialGradient id="Degradado_sin_nombre_239-2" data-name="Degradado sin nombre 239" cx="19518.48" cy="7629.47" fx="19518.48" fy="7629.47" gradientTransform="translate(-10724.51 2550.69) rotate(-97.35) scale(.06 1.45) skewX(-.05)" xlink:href="#Degradado_sin_nombre_239"/>
    <radialGradient id="Degradado_sin_nombre_30" data-name="Degradado sin nombre 30" cx="-488.52" cy="-1324.52" fx="-488.52" fy="-1324.52" r="5.36" gradientTransform="translate(724.97 1300.41) rotate(-6.77)" gradientUnits="userSpaceOnUse">
      <stop offset="0" stop-color="#fff"/>
      <stop offset=".04" stop-color="#fff" stop-opacity=".85"/>
      <stop offset=".1" stop-color="#fff" stop-opacity=".67"/>
      <stop offset=".16" stop-color="#fff" stop-opacity=".51"/>
      <stop offset=".23" stop-color="#fff" stop-opacity=".37"/>
      <stop offset=".3" stop-color="#fff" stop-opacity=".26"/>
      <stop offset=".38" stop-color="#fff" stop-opacity=".16"/>
      <stop offset=".47" stop-color="#fff" stop-opacity=".09"/>
      <stop offset=".57" stop-color="#fff" stop-opacity=".04"/>
      <stop offset=".71" stop-color="#fff" stop-opacity="0"/>
      <stop offset=".99" stop-color="#fff" stop-opacity="0"/>
    </radialGradient>
    <radialGradient id="Degradado_sin_nombre_95" data-name="Degradado sin nombre 95" cx="-488.33" cy="-1325.24" fx="-488.33" fy="-1325.24" r="5.36" gradientTransform="translate(724.97 1300.41) rotate(-6.77)" gradientUnits="userSpaceOnUse">
      <stop offset="0" stop-color="#fff"/>
      <stop offset=".04" stop-color="#fff" stop-opacity=".85"/>
      <stop offset=".1" stop-color="#fff" stop-opacity=".67"/>
      <stop offset=".16" stop-color="#fff" stop-opacity=".51"/>
      <stop offset=".23" stop-color="#fff" stop-opacity=".37"/>
      <stop offset=".3" stop-color="#fff" stop-opacity=".26"/>
      <stop offset=".38" stop-color="#fff" stop-opacity=".16"/>
      <stop offset=".47" stop-color="#fff" stop-opacity=".09"/>
      <stop offset=".58" stop-color="#fff" stop-opacity=".04"/>
      <stop offset=".71" stop-color="#fff" stop-opacity="0"/>
      <stop offset="1" stop-color="#fff" stop-opacity="0"/>
    </radialGradient>
    <radialGradient id="Degradado_sin_nombre_95-2" data-name="Degradado sin nombre 95" cx="-487.72" cy="-1325.26" fx="-487.72" fy="-1325.26" r="5.36" xlink:href="#Degradado_sin_nombre_95"/>
    <radialGradient id="Degradado_sin_nombre_95-3" data-name="Degradado sin nombre 95" cx="-488.58" cy="-1324.92" fx="-488.58" fy="-1324.92" r="5.36" xlink:href="#Degradado_sin_nombre_95"/>
    <radialGradient id="Degradado_sin_nombre_95-4" data-name="Degradado sin nombre 95" cx="-488.18" cy="-1324.87" fx="-488.18" fy="-1324.87" r="10.57" xlink:href="#Degradado_sin_nombre_95"/>
    <radialGradient id="Degradado_sin_nombre_259-3" data-name="Degradado sin nombre 259" cx="40685.15" cy="-2743.17" fx="40685.15" fy="-2743.17" r="16.67" gradientTransform="translate(-3051.21 1330.68) rotate(24.85) scale(.06 .91) skewX(-.09)" xlink:href="#Degradado_sin_nombre_259"/>
    <radialGradient id="Degradado_sin_nombre_259-4" data-name="Degradado sin nombre 259" cx="-146530.96" cy="11466.8" fx="-146530.96" fy="11466.8" r="16.67" gradientTransform="translate(-4762.34 12427.63) rotate(162.78) scale(.06 .91) skewX(-.09)" xlink:href="#Degradado_sin_nombre_259"/>
    <radialGradient id="Degradado_sin_nombre_239-3" data-name="Degradado sin nombre 239" cx="65812.4" cy="3396.84" fx="65812.4" fy="3396.84" r="16.67" gradientTransform="translate(-5942.08 1356.6) rotate(-65.15) scale(.06 1.45) skewX(-.05)" xlink:href="#Degradado_sin_nombre_239"/>
    <radialGradient id="Degradado_sin_nombre_239-4" data-name="Degradado sin nombre 239" cx="-14737.89" cy="6996.48" fx="-14737.89" fy="6996.48" r="16.67" gradientTransform="translate(-9680.91 2844.41) rotate(-110.72) scale(.06 1.45) skewX(-.05)" xlink:href="#Degradado_sin_nombre_239"/>
    <radialGradient id="Degradado_sin_nombre_31" data-name="Degradado sin nombre 31" cx="-1384.75" cy="623.98" fx="-1384.75" fy="623.98" r="5.36" gradientTransform="translate(1169.07 -1019.76) rotate(-20.14)" gradientUnits="userSpaceOnUse">
      <stop offset="0" stop-color="#fff"/>
      <stop offset=".15" stop-color="#fff" stop-opacity=".77"/>
      <stop offset=".32" stop-color="#fff" stop-opacity=".54"/>
      <stop offset=".49" stop-color="#fff" stop-opacity=".34"/>
      <stop offset=".64" stop-color="#fff" stop-opacity=".19"/>
      <stop offset=".78" stop-color="#fff" stop-opacity=".09"/>
      <stop offset=".91" stop-color="#fff" stop-opacity=".02"/>
      <stop offset="1" stop-color="#fff" stop-opacity="0"/>
    </radialGradient>
    <linearGradient id="Degradado_sin_nombre_186" data-name="Degradado sin nombre 186" x1="50.21" y1="145.21" x2="111.84" y2="145.21" gradientUnits="userSpaceOnUse">
      <stop offset="0" stop-color="#dbb15a"/>
      <stop offset="1" stop-color="#a17748"/>
    </linearGradient>
    <linearGradient id="Degradado_sin_nombre_186-2" data-name="Degradado sin nombre 186" x1="108.66" y1="145.15" x2="47.05" y2="145.29" xlink:href="#Degradado_sin_nombre_186"/>
    <clipPath id="clippath">
      <rect class="cls-21" x="0" y=".9" width="586" height="368" rx="32.48" ry="32.48"/>
    </clipPath>
    <radialGradient id="Degradado_sin_nombre_364" data-name="Degradado sin nombre 364" cx="476.62" cy="265.8" fx="469.71" fy="179.94" r="372.08" gradientTransform="translate(268.84 865.63) rotate(-112.23) scale(1 1.58)" gradientUnits="userSpaceOnUse">
      <stop offset=".18" stop-color="#001c26" stop-opacity="0"/>
      <stop offset=".76" stop-color="#f2f2f2"/>
    </radialGradient>
    <radialGradient id="Degradado_sin_nombre_777" data-name="Degradado sin nombre 777" cx="428.63" cy="1945.21" fx="748.54" fy="1652.08" r="473.3" gradientTransform="translate(84.02 -1319.01) scale(.92 .9)" gradientUnits="userSpaceOnUse">
      <stop offset="0" stop-color="#fff"/>
      <stop offset=".11" stop-color="#dce0e1"/>
      <stop offset=".36" stop-color="#8f9b9f"/>
      <stop offset=".58" stop-color="#51646b"/>
      <stop offset=".77" stop-color="#253d45"/>
      <stop offset=".91" stop-color="#0a242e"/>
      <stop offset="1" stop-color="#001c26"/>
    </radialGradient>
    <linearGradient id="Degradado_sin_nombre_862" data-name="Degradado sin nombre 862" x1="199.37" y1="435.36" x2="753.88" y2="435.36" gradientTransform="translate(246.84 -167.89) rotate(26.74)" gradientUnits="userSpaceOnUse">
      <stop offset="0" stop-color="#b5b5b5"/>
      <stop offset=".45" stop-color="#f2f2f2"/>
    </linearGradient>
    <linearGradient id="Degradado_sin_nombre_357" data-name="Degradado sin nombre 357" x1="7.68" y1="265.82" x2="948.11" y2="265.82" gradientUnits="userSpaceOnUse">
      <stop offset="0" stop-color="#f2f2f2"/>
      <stop offset="1" stop-color="#001c26"/>
    </linearGradient>
    <radialGradient id="Degradado_sin_nombre_356" data-name="Degradado sin nombre 356" cx="358.22" cy="1519.56" fx="434.17" fy="1468.16" r="91.7" gradientTransform="translate(-81.8 -1248.95) scale(.92 .9)" gradientUnits="userSpaceOnUse">
      <stop offset="0" stop-color="#f2f2f2"/>
      <stop offset="1" stop-color="#001c26"/>
    </radialGradient>
    <clipPath id="clippath-1">
      <rect class="cls-21" x="0" y="-422.16" width="586" height="368" rx="32.48" ry="32.48"/>
    </clipPath>
    <radialGradient id="Degradado_sin_nombre_365" data-name="Degradado sin nombre 365" cx="801.68" cy="-80.22" fx="1121.59" fy="-373.35" r="473.3" gradientTransform="translate(-420.76 115.84) scale(.89 .84)" gradientUnits="userSpaceOnUse">
      <stop offset="0" stop-color="#007599"/>
      <stop offset="1" stop-color="#001c26"/>
    </radialGradient>
  </defs>
  <g class="cls-27">
    <g id="Layer_1">
      <rect class="cls-26" x="0" y=".9" width="586" height="368" rx="32.48" ry="32.48"/>
      <g>
        <g>
          <g>
            <path class="cls-6" d="M84.82,42.94c-5.17,6.56-9.69,11.61-10.1,11.29-.41-.32,3.45-5.9,8.61-12.46,5.17-6.56,9.69-11.61,10.1-11.29.41.32-3.45,5.9-8.61,12.46Z"/>
            <path class="cls-3" d="M83.14,42.42c-.56-8.33-.59-15.11-.07-15.15.52-.04,1.4,6.69,1.96,15.02.56,8.33.59,15.11.07,15.15-.52.04-1.4-6.69-1.96-15.02Z"/>
            <path class="cls-12" d="M84.66,41.62c10.47,8.25,18.7,15.27,18.37,15.67s-9.07-5.94-19.54-14.19c-10.47-8.25-18.7-15.26-18.37-15.67.32-.41,9.07,5.94,19.54,14.19Z"/>
            <path class="cls-10" d="M83.96,41.42c13.22-1.71,23.99-2.67,24.06-2.15s-10.6,2.32-23.81,4.02c-13.22,1.71-23.99,2.67-24.06,2.15-.07-.52,10.6-2.32,23.81-4.02Z"/>
            <path class="cls-5" d="M89.11,42.12c.35,2.94-1.75,5.61-4.69,5.95-2.94.35-5.61-1.75-5.96-4.69-.35-2.94,1.75-5.61,4.69-5.96,2.94-.35,5.61,1.75,5.96,4.69Z"/>
            <path class="cls-7" d="M89.2,41.37c.35,2.94-1.75,5.61-4.69,5.96-2.94.35-5.61-1.75-5.95-4.69-.35-2.94,1.75-5.61,4.69-5.96,2.94-.35,5.61,1.75,5.96,4.69Z"/>
            <path class="cls-13" d="M89.81,41.28c.35,2.94-1.75,5.61-4.69,5.96-2.94.35-5.61-1.75-5.96-4.69-.35-2.94,1.75-5.61,4.69-5.96,2.94-.35,5.61,1.75,5.96,4.69Z"/>
            <path class="cls-4" d="M89,41.72c.35,2.94-1.75,5.61-4.69,5.96-2.94.35-5.61-1.75-5.96-4.69-.35-2.94,1.75-5.61,4.69-5.96,2.94-.35,5.61,1.75,5.96,4.69Z"/>
            <path class="cls-8" d="M94.57,41.11c.69,5.79-3.45,11.05-9.25,11.74-5.79.69-11.05-3.45-11.74-9.25-.69-5.79,3.45-11.05,9.25-11.74,5.79-.69,11.05,3.45,11.74,9.25Z"/>
          </g>
          <g>
            <path class="cls-2" d="M84.93,42.76c-3.51,7.58-6.74,13.54-7.21,13.32-.47-.22,1.99-6.54,5.5-14.11,3.51-7.58,6.74-13.54,7.21-13.32.47.22-1.99,6.54-5.5,14.11Z"/>
            <path class="cls-14" d="M83.18,42.64c-2.47-7.98-4.07-14.57-3.57-14.72.5-.15,2.91,6.19,5.38,14.16,2.47,7.98,4.07,14.57,3.57,14.72-.5.15-2.91-6.19-5.38-14.16Z"/>
            <path class="cls-9" d="M84.47,41.5c12.09,5.6,21.72,10.53,21.5,11s-10.2-3.69-22.29-9.29c-12.09-5.6-21.72-10.53-21.5-11,.22-.47,10.2,3.69,22.29,9.29Z"/>
            <path class="cls-1" d="M83.74,41.48c12.47-4.72,22.72-8.14,22.91-7.66s-9.77,4.71-22.24,9.42c-12.47,4.72-22.72,8.14-22.91,7.66-.18-.49,9.77-4.71,22.24-9.42Z"/>
            <path class="cls-11" d="M88.91,40.96c1.02,2.78-.41,5.86-3.19,6.88-2.78,1.02-5.86-.41-6.88-3.19-1.02-2.78.41-5.86,3.19-6.88,2.78-1.02,5.86.41,6.88,3.19Z"/>
          </g>
        </g>
        <g>
          <g>
            <path class="cls-18" d="M74.34,41.45c-6.62,0-12.75,2.13-17.73,5.74l-.12-13.86h16.34v-3.5h-20.2v25.97c.81-1.09,1.7-2.14,2.68-3.11,5.08-5.08,11.84-7.88,19.03-7.88s13.95,2.8,19.03,7.88c5.08,5.08,7.88,11.84,7.88,19.03s-2.8,13.95-7.88,19.03c-.08.08-.16.15-.23.23h4.55c4.32-5.23,6.92-11.94,6.92-19.26,0-16.72-13.55-30.27-30.27-30.27Z"/>
            <path class="cls-18" d="M102.16,29.23c-8.46,0-15.8,4.81-19.43,11.84,1.11.29,2.19.64,3.25,1.05,3.16-5.68,9.23-9.53,16.18-9.53,10.21,0,18.51,8.3,18.51,18.51,0,8.89-6.3,16.33-14.66,18.11.1,1.02.15,2.06.15,3.11,0,.09,0,.19,0,.28,10.16-1.88,17.86-10.79,17.86-21.5,0-12.07-9.79-21.86-21.86-21.86Z"/>
          </g>
          <g>
            <path class="cls-18" d="M58.94,81.61c.66.62,1,1.46,1,2.51s-.33,1.88-1,2.51c-.66.62-1.43.93-2.3.93h-1.28v3.41h-2.72v-10.3h4c.87,0,1.64.31,2.3.93ZM56.82,84.72c.16-.16.25-.36.25-.59s-.08-.43-.25-.6c-.16-.16-.36-.25-.6-.25h-.87v1.68h.87c.23,0,.43-.08.6-.24Z"/>
            <path class="cls-18" d="M63.72,88.37h3.45v2.6h-6.17v-10.3h2.72v7.69Z"/>
            <path class="cls-18" d="M77.89,90.98h-2.79l-.72-1.92h-3.11l-.72,1.92h-2.79l3.78-10.3h2.57l3.78,10.3ZM72.1,86.78h1.46l-.74-2.55-.72,2.55Z"/>
            <path class="cls-18" d="M85.44,86.32v-5.64h2.74v10.3h-2.48l-4.46-5.64v5.64h-2.74v-10.3h2.48l4.47,5.64Z"/>
          </g>
        </g>
      </g>
      <rect class="cls-24" x="50.21" y="121.53" width="61.62" height="47.35" rx="6.81" ry="6.81"/>
      <path class="cls-30" d="M50.21,163.88c0-12.45,0-24.9,0-37.35.03-.06.08-.12.09-.18.66-2.91,3.3-4.81,6.75-4.81,15.98,0,31.97,0,47.95,0,3.87,0,6.82,2.5,6.82,5.79.01,11.92.01,23.84,0,35.76,0,.62-.12,1.26-.34,1.85-.9,2.41-3.45,3.94-6.53,3.94-6.46,0-12.92,0-19.37,0-9.47,0-18.93,0-28.4,0-2.74,0-4.83-1.01-6.15-3.04-.39-.6-.55-1.3-.81-1.95ZM74.24,152.58c-.68,2.66-2.59,4.27-5.69,4.83v9.8h24.96v-9.81c-3.24-.67-4.75-1.95-5.71-4.83h-13.57ZM68.53,133.01c3.17.58,5.05,2.21,5.71,4.83h13.58c.67-2.67,2.58-4.27,5.69-4.83v-9.8h-24.98v9.8ZM72.3,144.37c.03-.07.05-.1.05-.13,0-1.77,0-3.54,0-5.3,0-2.61-2.03-4.34-5.13-4.34-4.81,0-9.62,0-14.44,0h-.63v9.77h20.13ZM109.87,144.37v-9.75c-.1-.01-.16-.02-.22-.02-5.09,0-10.19-.02-15.28,0-2.56.01-4.63,1.81-4.67,3.99-.02,1.1,0,2.21,0,3.31,0,.81,0,1.62,0,2.45h20.18ZM52.16,155.82h.48c4.93,0,9.86,0,14.8,0,2.81,0,4.9-1.78,4.91-4.16.01-1.73,0-3.47,0-5.2,0-.13-.02-.26-.03-.4h-20.17v9.76ZM89.69,146.04c0,.21,0,.38,0,.54,0,1.63,0,3.26,0,4.9,0,2.62,2.03,4.34,5.12,4.35,4.81,0,9.62,0,14.44,0h.61v-9.79h-20.17ZM74.33,139.52v11.36h13.41v-11.36h-13.41ZM66.54,132.94v-9.76c-3.37,0-6.7-.07-10.02.02-2.41.07-4.32,1.87-4.37,3.92-.03,1.21,0,2.41,0,3.62,0,.73,0,1.45,0,2.2h14.4ZM109.91,132.96c0-.21,0-.38,0-.54,0-1.65,0-3.3,0-4.95,0-2.55-2.05-4.29-5.06-4.3-2.91,0-5.81,0-8.72,0-.21,0-.42,0-.61,0v9.79h14.39ZM66.56,157.49h-14.4c0,2.02-.07,4.01.02,6,.09,2.03,2.17,3.72,4.58,3.75,3.23.04,6.46,0,9.68,0,.03,0,.07-.03.13-.05v-9.69ZM95.5,167.25h.58c2.95,0,5.89,0,8.84,0,2.92,0,4.99-1.76,5-4.25,0-1.68,0-3.37,0-5.05,0-.16,0-.32,0-.47h-14.42v9.77Z"/>
      <text class="cls-20" transform="translate(501.12 79.25)"><tspan x="0" y="0">β</tspan></text>
      <text class="cls-19" transform="translate(441.94 126.54)"><tspan x="0" y="0">Li</tspan><tspan class="cls-28" x="22.29" y="0">c</tspan><tspan x="38.54" y="0">ense</tspan></text>
      <g class="cls-31">
        <g>
          <path class="cls-17" d="M9.8,419.81S-15.49,195.75,256.11,122.18c271.61-73.57,687.96,267.65,687.96,267.65L9.8,419.81Z"/>
          <ellipse class="cls-15" cx="476.62" cy="435.36" rx="276.55" ry="272.31" transform="translate(-144.91 260.99) rotate(-26.74)"/>
          <ellipse class="cls-23" cx="476.62" cy="435.36" rx="276.55" ry="272.31" transform="translate(-144.91 260.99) rotate(-26.74)"/>
          <path class="cls-22" d="M9.8,419.81S-15.49,195.75,256.11,122.18c271.61-73.57,687.96,267.65,687.96,267.65L9.8,419.81Z"/>
          <ellipse class="cls-29" cx="246.31" cy="121.53" rx="53.58" ry="52.76" transform="translate(-28.34 123.81) rotate(-26.74)"/>
        </g>
      </g>
      <g class="cls-25">
        <ellipse class="cls-16" cx="293" cy="48.12" rx="268.82" ry="254.89"/>
      </g>
    </g>
  </g>
</svg>