<svg xmlns="http://www.w3.org/2000/svg" xmlns:xlink="http://www.w3.org/1999/xlink" width="1920" height="487" viewBox="0 0 1920 487"><defs><style>.a{fill:url(#a);}.b{clip-path:url(#c);}.c{opacity:0.16;}.d,.e,.g{fill:none;}.d,.e{stroke:#fff;}.d{stroke-width:2px;}.e{stroke-width:16px;opacity:0.32;}.f{stroke:none;}</style><linearGradient id="a" x1="0.968" y1="0.796" x2="0.179" y2="0.145" gradientUnits="objectBoundingBox"><stop offset="0" stop-color="#00d5ef"/><stop offset="1" stop-color="#006392"/></linearGradient><clipPath id="c"><rect class="a" width="1920" height="487" transform="translate(0 6482)"/></clipPath></defs><g class="b" transform="translate(0 -6482)"><g class="c"><g class="d" transform="translate(1200 6376) rotate(90)"><ellipse class="f" cx="396.5" cy="945.5" rx="396.5" ry="945.5"/><ellipse class="g" cx="396.5" cy="945.5" rx="395.5" ry="944.5"/></g><g class="d" transform="translate(1386 6376) rotate(90)"><ellipse class="f" cx="396.5" cy="1027" rx="396.5" ry="1027"/><ellipse class="g" cx="396.5" cy="1027" rx="395.5" ry="1026"/></g><g class="d" transform="translate(1576 6376) rotate(90)"><ellipse class="f" cx="396.5" cy="1141" rx="396.5" ry="1141"/><ellipse class="g" cx="396.5" cy="1141" rx="395.5" ry="1140"/></g><g class="d" transform="translate(1764 6376) rotate(90)"><ellipse class="f" cx="396.5" cy="1221.5" rx="396.5" ry="1221.5"/><ellipse class="g" cx="396.5" cy="1221.5" rx="395.5" ry="1220.5"/></g></g></g><g class="b" transform="translate(0 -6482)"><g class="e" transform="translate(-361 6384)"><circle class="f" cx="473" cy="473" r="473"/><circle class="g" cx="473" cy="473" r="465"/></g></g></svg>