<?xml version="1.0" encoding="UTF-8"?>
<svg xmlns="http://www.w3.org/2000/svg" xmlns:xlink="http://www.w3.org/1999/xlink" viewBox="0 0 586.01 368.9">
  <defs>
    <style>
      .cls-1 {
        fill: url(#Degradado_sin_nombre_758);
        opacity: .25;
      }

      .cls-2 {
        fill: url(#Degradado_sin_nombre_239-4);
      }

      .cls-2, .cls-3, .cls-4, .cls-5, .cls-6, .cls-7, .cls-8, .cls-9, .cls-10, .cls-11, .cls-12, .cls-13, .cls-14, .cls-15 {
        mix-blend-mode: screen;
      }

      .cls-16 {
        fill: url(#Degradado_sin_nombre_777);
      }

      .cls-17 {
        fill: url(#Degradado_sin_nombre_472-2);
      }

      .cls-18 {
        stroke: url(#Degradado_sin_nombre_756-4);
      }

      .cls-18, .cls-19, .cls-20, .cls-21, .cls-22, .cls-23 {
        fill: none;
      }

      .cls-18, .cls-20, .cls-21, .cls-22, .cls-23 {
        stroke-miterlimit: 10;
      }

      .cls-18, .cls-20, .cls-22 {
        stroke-width: 1.88px;
      }

      .cls-24 {
        fill: url(#Degradado_sin_nombre_762);
        opacity: .15;
      }

      .cls-3 {
        fill: url(#Degradado_sin_nombre_259-3);
      }

      .cls-4 {
        fill: url(#Degradado_sin_nombre_259-2);
      }

      .cls-25, .cls-26, .cls-27 {
        fill: #fff;
      }

      .cls-5 {
        fill: url(#Degradado_sin_nombre_95-3);
      }

      .cls-6 {
        fill: url(#Degradado_sin_nombre_30);
      }

      .cls-28 {
        fill: url(#Degradado_sin_nombre_925);
      }

      .cls-7 {
        fill: url(#Degradado_sin_nombre_259);
      }

      .cls-29 {
        fill: url(#Degradado_sin_nombre_472-3);
      }

      .cls-8 {
        fill: url(#Degradado_sin_nombre_95);
      }

      .cls-9 {
        fill: url(#Degradado_sin_nombre_95-4);
      }

      .cls-20 {
        stroke: url(#Degradado_sin_nombre_756-2);
      }

      .cls-20, .cls-21, .cls-22 {
        opacity: .1;
      }

      .cls-10 {
        fill: url(#Degradado_sin_nombre_239-3);
      }

      .cls-30 {
        fill: url(#Degradado_sin_nombre_186);
      }

      .cls-21 {
        stroke: url(#Degradado_sin_nombre_756-3);
        stroke-width: 2.95px;
      }

      .cls-11 {
        fill: url(#Degradado_sin_nombre_239-2);
      }

      .cls-31 {
        clip-path: url(#clippath-1);
      }

      .cls-32 {
        isolation: isolate;
      }

      .cls-33 {
        letter-spacing: -.01em;
      }

      .cls-12 {
        fill: url(#Degradado_sin_nombre_31);
      }

      .cls-34 {
        fill: url(#Degradado_sin_nombre_472);
      }

      .cls-26 {
        font-family: FuturaLTPaneuropean-Book, 'Futura LT Paneuropean';
        font-size: 35px;
      }

      .cls-13 {
        fill: url(#Degradado_sin_nombre_239);
      }

      .cls-14 {
        fill: url(#Degradado_sin_nombre_95-2);
      }

      .cls-35 {
        fill: url(#Degradado_sin_nombre_924);
        opacity: .2;
      }

      .cls-27 {
        font-family: SegoeUIVariable-BoldSmall, 'Segoe UI Variable';
        font-size: 67px;
        font-variation-settings: 'wght' 700, 'opsz' 8;
        font-weight: 700;
      }

      .cls-36 {
        fill: url(#Degradado_sin_nombre_923);
      }

      .cls-37 {
        fill: url(#Degradado_sin_nombre_186-2);
      }

      .cls-22 {
        stroke: url(#Degradado_sin_nombre_756);
      }

      .cls-15 {
        fill: url(#Degradado_sin_nombre_259-4);
      }

      .cls-38 {
        clip-path: url(#clippath);
      }

      .cls-23 {
        stroke: url(#Degradado_sin_nombre_862);
        stroke-width: 3px;
      }
    </style>
    <clipPath id="clippath">
      <rect class="cls-19" x="0" y="-421.71" width="586" height="368" rx="32.48" ry="32.48"/>
    </clipPath>
    <radialGradient id="Degradado_sin_nombre_777" data-name="Degradado sin nombre 777" cx="428.63" cy="1522.6" fx="748.54" fy="1229.47" r="473.3" gradientTransform="translate(84.02 -1360.47) scale(.92 .9)" gradientUnits="userSpaceOnUse">
      <stop offset="0" stop-color="#fff"/>
      <stop offset=".11" stop-color="#dce0e1"/>
      <stop offset=".36" stop-color="#8f9b9f"/>
      <stop offset=".58" stop-color="#51646b"/>
      <stop offset=".77" stop-color="#253d45"/>
      <stop offset=".91" stop-color="#0a242e"/>
      <stop offset="1" stop-color="#001c26"/>
    </radialGradient>
    <linearGradient id="Degradado_sin_nombre_862" data-name="Degradado sin nombre 862" x1="199.37" y1="12.75" x2="753.88" y2="12.75" gradientTransform="translate(56.7 -213.07) rotate(26.74)" gradientUnits="userSpaceOnUse">
      <stop offset="0" stop-color="#b5b5b5"/>
      <stop offset=".45" stop-color="#f2f2f2"/>
    </linearGradient>
    <radialGradient id="Degradado_sin_nombre_925" data-name="Degradado sin nombre 925" cx="293" cy="184.45" fx="552.22" fy="-53.07" r="383.51" gradientUnits="userSpaceOnUse">
      <stop offset="0" stop-color="#e0ad5e"/>
      <stop offset="1" stop-color="#241e13"/>
    </radialGradient>
    <clipPath id="clippath-1">
      <rect class="cls-19" x="0" y=".45" width="586" height="368" rx="32.48" ry="32.48"/>
    </clipPath>
    <radialGradient id="Degradado_sin_nombre_762" data-name="Degradado sin nombre 762" cx="202.32" cy="-139.45" fx="268.53" fy="634.19" r="1618.33" gradientTransform="translate(365.87 106.19) rotate(169.25) scale(1 .11)" gradientUnits="userSpaceOnUse">
      <stop offset=".39" stop-color="#302000"/>
      <stop offset=".59" stop-color="#d4a151"/>
    </radialGradient>
    <linearGradient id="Degradado_sin_nombre_756" data-name="Degradado sin nombre 756" x1="-566.84" y1="-108.51" x2="970.88" y2="-108.51" gradientTransform="translate(-47.34 273.46) rotate(6.7)" gradientUnits="userSpaceOnUse">
      <stop offset="0" stop-color="#906317"/>
      <stop offset=".45" stop-color="#ffddba"/>
    </linearGradient>
    <radialGradient id="Degradado_sin_nombre_924" data-name="Degradado sin nombre 924" cx="261.35" cy="103.89" fx="268.14" fy="172.88" r="2743.37" gradientTransform="translate(498.07 232.87) rotate(167.23) scale(1 .3)" gradientUnits="userSpaceOnUse">
      <stop offset=".06" stop-color="#302000"/>
      <stop offset=".09" stop-color="#44300a"/>
      <stop offset=".14" stop-color="#7b5b25"/>
      <stop offset=".22" stop-color="#d19f4f"/>
      <stop offset=".22" stop-color="#d4a151"/>
    </radialGradient>
    <linearGradient id="Degradado_sin_nombre_756-2" data-name="Degradado sin nombre 756" x1="-452.37" y1="103.92" x2="974.29" y2="103.92" gradientTransform="translate(-18.13 140.38) rotate(3.54)" xlink:href="#Degradado_sin_nombre_756"/>
    <radialGradient id="Degradado_sin_nombre_758" data-name="Degradado sin nombre 758" cx="-135.3" cy="310.21" fx="-219.09" fy="30.66" r="525.27" gradientTransform="translate(-268.6 450.49) rotate(-129.92) scale(1.11 1.94) skewX(-26.2)" gradientUnits="userSpaceOnUse">
      <stop offset=".3" stop-color="#302000"/>
      <stop offset=".49" stop-color="#e3a43f"/>
    </radialGradient>
    <linearGradient id="Degradado_sin_nombre_756-3" data-name="Degradado sin nombre 756" x1="-353.49" y1="336.21" x2="1149.92" y2="336.21" gradientTransform="matrix(1,0,0,1,0,0)" xlink:href="#Degradado_sin_nombre_756"/>
    <radialGradient id="Degradado_sin_nombre_472" data-name="Degradado sin nombre 472" cx="205.35" cy="1472.38" fx="235.45" fy="1444.8" r="44.54" gradientTransform="translate(85.52 -1263.62) scale(.92 .9)" gradientUnits="userSpaceOnUse">
      <stop offset="0" stop-color="#d4a151"/>
      <stop offset="1" stop-color="#302000"/>
    </radialGradient>
    <radialGradient id="Degradado_sin_nombre_472-2" data-name="Degradado sin nombre 472" cx="119.32" cy="1369.98" fx="142.4" fy="1348.83" r="34.14" gradientTransform="translate(52.39 -1218.29) scale(.92 .9)" xlink:href="#Degradado_sin_nombre_472"/>
    <radialGradient id="Degradado_sin_nombre_472-3" data-name="Degradado sin nombre 472" cx="192.94" cy="1579.08" fx="257.99" fy="1519.47" r="96.24" gradientTransform="translate(130.03 -1268.79) scale(.92 .9)" xlink:href="#Degradado_sin_nombre_472"/>
    <radialGradient id="Degradado_sin_nombre_923" data-name="Degradado sin nombre 923" cx="313.83" cy="1750.22" fx="514.34" fy="1566.49" r="296.65" gradientTransform="translate(187.63 -1335.11) scale(.92 .9)" gradientUnits="userSpaceOnUse">
      <stop offset="0" stop-color="#ffc262"/>
      <stop offset="1" stop-color="#000"/>
    </radialGradient>
    <linearGradient id="Degradado_sin_nombre_756-4" data-name="Degradado sin nombre 756" x1="301.3" y1="243.4" x2="648.85" y2="243.4" gradientTransform="translate(160.31 -187.72) rotate(26.74)" xlink:href="#Degradado_sin_nombre_756"/>
    <radialGradient id="Degradado_sin_nombre_259" data-name="Degradado sin nombre 259" cx="32156.82" cy="-5018.84" fx="32156.82" fy="-5018.84" r="16.67" gradientTransform="translate(-4161.55 2489.5) rotate(38.23) scale(.06 .91) skewX(-.09)" gradientUnits="userSpaceOnUse">
      <stop offset="0" stop-color="#fff"/>
      <stop offset=".12" stop-color="#fff" stop-opacity=".77"/>
      <stop offset=".25" stop-color="#fff" stop-opacity=".57"/>
      <stop offset=".37" stop-color="#fff" stop-opacity=".4"/>
      <stop offset=".5" stop-color="#fff" stop-opacity=".25"/>
      <stop offset=".62" stop-color="#fff" stop-opacity=".14"/>
      <stop offset=".75" stop-color="#fff" stop-opacity=".06"/>
      <stop offset=".87" stop-color="#fff" stop-opacity=".02"/>
      <stop offset="1" stop-color="#fff" stop-opacity="0"/>
    </radialGradient>
    <radialGradient id="Degradado_sin_nombre_259-2" data-name="Degradado sin nombre 259" cx="-160085.9" cy="12776.39" fx="-160085.9" fy="12776.39" r="16.67" gradientTransform="translate(-8181.15 12206.73) rotate(176.15) scale(.06 .91) skewX(-.09)" xlink:href="#Degradado_sin_nombre_259"/>
    <radialGradient id="Degradado_sin_nombre_239" data-name="Degradado sin nombre 239" cx="95487.25" cy="2640.73" fx="95487.25" fy="2640.73" r="16.67" gradientTransform="translate(-6262.54 1923.66) rotate(-51.77) scale(.06 1.45) skewX(-.05)" gradientUnits="userSpaceOnUse">
      <stop offset="0" stop-color="#fff"/>
      <stop offset=".05" stop-color="#fff" stop-opacity=".92"/>
      <stop offset=".2" stop-color="#fff" stop-opacity=".68"/>
      <stop offset=".35" stop-color="#fff" stop-opacity=".47"/>
      <stop offset=".5" stop-color="#fff" stop-opacity=".3"/>
      <stop offset=".64" stop-color="#fff" stop-opacity=".17"/>
      <stop offset=".77" stop-color="#fff" stop-opacity=".08"/>
      <stop offset=".9" stop-color="#fff" stop-opacity=".02"/>
      <stop offset="1" stop-color="#fff" stop-opacity="0"/>
    </radialGradient>
    <radialGradient id="Degradado_sin_nombre_239-2" data-name="Degradado sin nombre 239" cx="12122.27" cy="7169.52" fx="12122.27" fy="7169.52" r="16.67" gradientTransform="translate(-10117.98 2049.84) rotate(-97.35) scale(.06 1.45) skewX(-.05)" xlink:href="#Degradado_sin_nombre_239"/>
    <radialGradient id="Degradado_sin_nombre_30" data-name="Degradado sin nombre 30" cx="-538.28" cy="-1327.89" fx="-538.28" fy="-1327.89" r="5.36" gradientTransform="translate(774.78 1297.44) rotate(-6.77)" gradientUnits="userSpaceOnUse">
      <stop offset="0" stop-color="#fff"/>
      <stop offset=".04" stop-color="#fff" stop-opacity=".85"/>
      <stop offset=".1" stop-color="#fff" stop-opacity=".67"/>
      <stop offset=".16" stop-color="#fff" stop-opacity=".51"/>
      <stop offset=".23" stop-color="#fff" stop-opacity=".37"/>
      <stop offset=".3" stop-color="#fff" stop-opacity=".26"/>
      <stop offset=".38" stop-color="#fff" stop-opacity=".16"/>
      <stop offset=".47" stop-color="#fff" stop-opacity=".09"/>
      <stop offset=".57" stop-color="#fff" stop-opacity=".04"/>
      <stop offset=".71" stop-color="#fff" stop-opacity="0"/>
      <stop offset=".99" stop-color="#fff" stop-opacity="0"/>
    </radialGradient>
    <radialGradient id="Degradado_sin_nombre_95" data-name="Degradado sin nombre 95" cx="-538.09" cy="-1328.62" fx="-538.09" fy="-1328.62" r="5.36" gradientTransform="translate(774.78 1297.44) rotate(-6.77)" gradientUnits="userSpaceOnUse">
      <stop offset="0" stop-color="#fff"/>
      <stop offset=".04" stop-color="#fff" stop-opacity=".85"/>
      <stop offset=".1" stop-color="#fff" stop-opacity=".67"/>
      <stop offset=".16" stop-color="#fff" stop-opacity=".51"/>
      <stop offset=".23" stop-color="#fff" stop-opacity=".37"/>
      <stop offset=".3" stop-color="#fff" stop-opacity=".26"/>
      <stop offset=".38" stop-color="#fff" stop-opacity=".16"/>
      <stop offset=".47" stop-color="#fff" stop-opacity=".09"/>
      <stop offset=".58" stop-color="#fff" stop-opacity=".04"/>
      <stop offset=".71" stop-color="#fff" stop-opacity="0"/>
      <stop offset="1" stop-color="#fff" stop-opacity="0"/>
    </radialGradient>
    <radialGradient id="Degradado_sin_nombre_95-2" data-name="Degradado sin nombre 95" cx="-537.48" cy="-1328.63" fx="-537.48" fy="-1328.63" r="5.36" xlink:href="#Degradado_sin_nombre_95"/>
    <radialGradient id="Degradado_sin_nombre_95-3" data-name="Degradado sin nombre 95" cx="-538.34" cy="-1328.29" fx="-538.34" fy="-1328.29" r="5.36" xlink:href="#Degradado_sin_nombre_95"/>
    <radialGradient id="Degradado_sin_nombre_95-4" data-name="Degradado sin nombre 95" cx="-537.94" cy="-1328.24" fx="-537.94" fy="-1328.24" r="10.57" xlink:href="#Degradado_sin_nombre_95"/>
    <radialGradient id="Degradado_sin_nombre_259-3" data-name="Degradado sin nombre 259" cx="43820.29" cy="-2743.23" fx="43820.29" fy="-2743.23" r="16.67" gradientTransform="translate(-3212.27 1255.69) rotate(24.85) scale(.06 .91) skewX(-.09)" xlink:href="#Degradado_sin_nombre_259"/>
    <radialGradient id="Degradado_sin_nombre_259-4" data-name="Degradado sin nombre 259" cx="-144323.73" cy="10599.39" fx="-144323.73" fy="10599.39" r="16.67" gradientTransform="translate(-4875.73 11639.07) rotate(162.78) scale(.06 .91) skewX(-.09)" xlink:href="#Degradado_sin_nombre_259"/>
    <radialGradient id="Degradado_sin_nombre_239-3" data-name="Degradado sin nombre 239" cx="59045.71" cy="3096.84" fx="59045.71" fy="3096.84" r="16.67" gradientTransform="translate(-5387.17 1191.06) rotate(-65.15) scale(.06 1.45) skewX(-.05)" xlink:href="#Degradado_sin_nombre_239"/>
    <radialGradient id="Degradado_sin_nombre_239-4" data-name="Degradado sin nombre 239" cx="-21712.96" cy="6470.64" fx="-21712.96" fy="6470.64" r="16.67" gradientTransform="translate(-9108.91 2205.42) rotate(-110.72) scale(.06 1.45) skewX(-.05)" xlink:href="#Degradado_sin_nombre_239"/>
    <radialGradient id="Degradado_sin_nombre_31" data-name="Degradado sin nombre 31" cx="-1530.11" cy="597.74" fx="-1530.11" fy="597.74" r="5.36" gradientTransform="translate(1314.57 -1045.61) rotate(-20.14)" gradientUnits="userSpaceOnUse">
      <stop offset="0" stop-color="#fff"/>
      <stop offset=".15" stop-color="#fff" stop-opacity=".77"/>
      <stop offset=".32" stop-color="#fff" stop-opacity=".54"/>
      <stop offset=".49" stop-color="#fff" stop-opacity=".34"/>
      <stop offset=".64" stop-color="#fff" stop-opacity=".19"/>
      <stop offset=".78" stop-color="#fff" stop-opacity=".09"/>
      <stop offset=".91" stop-color="#fff" stop-opacity=".02"/>
      <stop offset="1" stop-color="#fff" stop-opacity="0"/>
    </radialGradient>
    <linearGradient id="Degradado_sin_nombre_186" data-name="Degradado sin nombre 186" x1="50.21" y1="144.76" x2="111.84" y2="144.76" gradientUnits="userSpaceOnUse">
      <stop offset="0" stop-color="#dbb15a"/>
      <stop offset="1" stop-color="#a17748"/>
    </linearGradient>
    <linearGradient id="Degradado_sin_nombre_186-2" data-name="Degradado sin nombre 186" x1="108.66" y1="144.7" x2="47.05" y2="144.84" xlink:href="#Degradado_sin_nombre_186"/>
  </defs>
  <g class="cls-32">
    <g id="Layer_1">
      <g class="cls-38">
        <g>
          <ellipse class="cls-16" cx="476.62" cy="12.75" rx="276.55" ry="272.31" transform="translate(45.23 215.8) rotate(-26.74)"/>
          <ellipse class="cls-23" cx="476.62" cy="12.75" rx="276.55" ry="272.31" transform="translate(45.23 215.8) rotate(-26.74)"/>
        </g>
      </g>
      <rect class="cls-28" x="0" y=".45" width="586" height="368" rx="32.48" ry="32.48"/>
      <g class="cls-31">
        <g>
          <g>
            <path class="cls-24" d="M-602.22,165.78S-2.16,41.06,189.6,12.57c191.76-28.5,775.76-60.13,775.76-60.13L311.78,474.9-602.22,165.78Z"/>
            <path class="cls-22" d="M-602.22,165.78S-2.16,41.06,189.6,12.57c191.76-28.5,775.76-60.13,775.76-60.13L284.69,534.36-602.22,165.78Z"/>
          </g>
          <g>
            <path class="cls-35" d="M-476.34,276.39S92.28,105.81,282.18,66.78c189.9-39.03,675.89,29.58,675.89,29.58L320.8,487.96l-797.13-211.57Z"/>
            <path class="cls-20" d="M-476.34,276.39S92.28,105.81,282.18,66.78c189.9-39.03,675.89,29.58,675.89,29.58L320.8,487.96l-797.13-211.57Z"/>
          </g>
          <g>
            <path class="cls-1" d="M-349.75,445.69S-66.07,231.16,276.85,163.15c342.92-68,868.58,247.41,868.58,247.41l-708.87,56.31-786.3-21.19Z"/>
            <path class="cls-21" d="M-349.75,445.69S-66.07,231.16,276.85,163.15c342.92-68,868.58,247.41,868.58,247.41l-954.12,108.29-541.05-73.16Z"/>
          </g>
          <ellipse class="cls-34" cx="273.6" cy="64.32" rx="26.02" ry="25.62" transform="translate(.32 129.97) rotate(-26.74)"/>
          <ellipse class="cls-17" cx="161.68" cy="17.29" rx="19.95" ry="19.64" transform="translate(9.51 74.59) rotate(-26.74)"/>
          <ellipse class="cls-29" cx="306.74" cy="155.37" rx="56.23" ry="55.37" transform="translate(-37.11 154.62) rotate(-26.74)"/>
          <ellipse class="cls-36" cx="475.07" cy="243.4" rx="173.33" ry="170.68" transform="translate(-58.71 239.77) rotate(-26.74)"/>
          <ellipse class="cls-18" cx="475.07" cy="243.4" rx="173.33" ry="170.68" transform="translate(-58.71 239.77) rotate(-26.74)"/>
        </g>
      </g>
      <g>
        <g>
          <g>
            <path class="cls-7" d="M84.82,42.49c-5.17,6.56-9.69,11.61-10.1,11.29-.41-.32,3.45-5.9,8.61-12.46,5.17-6.56,9.69-11.61,10.1-11.29.41.32-3.45,5.9-8.61,12.46Z"/>
            <path class="cls-4" d="M83.13,41.97c-.56-8.33-.59-15.11-.07-15.15.52-.04,1.4,6.69,1.96,15.02.56,8.33.59,15.11.07,15.15-.52.04-1.4-6.69-1.96-15.02Z"/>
            <path class="cls-13" d="M84.66,41.17c10.47,8.25,18.7,15.27,18.37,15.67s-9.07-5.94-19.54-14.19c-10.47-8.25-18.7-15.26-18.37-15.67.32-.41,9.07,5.94,19.54,14.19Z"/>
            <path class="cls-11" d="M83.95,40.97c13.22-1.71,23.99-2.67,24.06-2.15s-10.6,2.32-23.81,4.02c-13.22,1.71-23.99,2.67-24.06,2.15-.07-.52,10.6-2.32,23.81-4.02Z"/>
            <path class="cls-6" d="M89.1,41.67c.35,2.94-1.75,5.61-4.69,5.95-2.94.35-5.61-1.75-5.96-4.69-.35-2.94,1.75-5.61,4.69-5.96,2.94-.35,5.61,1.75,5.96,4.69Z"/>
            <path class="cls-8" d="M89.2,40.92c.35,2.94-1.75,5.61-4.69,5.96-2.94.35-5.61-1.75-5.95-4.69-.35-2.94,1.75-5.61,4.69-5.96,2.94-.35,5.61,1.75,5.96,4.69Z"/>
            <path class="cls-14" d="M89.81,40.83c.35,2.94-1.75,5.61-4.69,5.96-2.94.35-5.61-1.75-5.96-4.69-.35-2.94,1.75-5.61,4.69-5.96,2.94-.35,5.61,1.75,5.96,4.69Z"/>
            <path class="cls-5" d="M89,41.28c.35,2.94-1.75,5.61-4.69,5.96-2.94.35-5.61-1.75-5.96-4.69-.35-2.94,1.75-5.61,4.69-5.96,2.94-.35,5.61,1.75,5.96,4.69Z"/>
            <path class="cls-9" d="M94.57,40.67c.69,5.79-3.45,11.05-9.25,11.74-5.79.69-11.05-3.45-11.74-9.25-.69-5.79,3.45-11.05,9.25-11.74,5.79-.69,11.05,3.45,11.74,9.25Z"/>
          </g>
          <g>
            <path class="cls-3" d="M84.93,42.31c-3.51,7.58-6.74,13.54-7.21,13.32-.47-.22,1.99-6.54,5.5-14.11,3.51-7.58,6.74-13.54,7.21-13.32.47.22-1.99,6.54-5.5,14.11Z"/>
            <path class="cls-15" d="M83.17,42.19c-2.47-7.98-4.07-14.57-3.57-14.72.5-.15,2.91,6.19,5.38,14.16,2.47,7.98,4.07,14.57,3.57,14.72-.5.15-2.91-6.19-5.38-14.16Z"/>
            <path class="cls-10" d="M84.47,41.05c12.09,5.6,21.72,10.53,21.5,11s-10.2-3.69-22.29-9.29c-12.09-5.6-21.72-10.53-21.5-11,.22-.47,10.2,3.69,22.29,9.29Z"/>
            <path class="cls-2" d="M83.74,41.03c12.47-4.72,22.72-8.14,22.91-7.66s-9.77,4.71-22.24,9.42c-12.47,4.72-22.72,8.14-22.91,7.66-.18-.49,9.77-4.71,22.24-9.42Z"/>
            <path class="cls-12" d="M88.91,40.51c1.02,2.78-.41,5.86-3.19,6.88-2.78,1.02-5.86-.41-6.88-3.19-1.02-2.78.41-5.86,3.19-6.88,2.78-1.02,5.86.41,6.88,3.19Z"/>
          </g>
        </g>
        <g>
          <g>
            <path class="cls-25" d="M74.34,41.01c-6.62,0-12.75,2.13-17.73,5.74l-.12-13.86h16.34v-3.5h-20.2v25.97c.81-1.09,1.7-2.14,2.68-3.11,5.08-5.08,11.84-7.88,19.03-7.88s13.95,2.8,19.03,7.88c5.08,5.08,7.88,11.84,7.88,19.03s-2.8,13.95-7.88,19.03c-.08.08-.16.15-.23.23h4.55c4.32-5.23,6.92-11.94,6.92-19.26,0-16.72-13.55-30.27-30.27-30.27Z"/>
            <path class="cls-25" d="M102.15,28.79c-8.46,0-15.8,4.81-19.43,11.84,1.11.29,2.19.64,3.25,1.05,3.16-5.68,9.23-9.53,16.18-9.53,10.21,0,18.51,8.3,18.51,18.51,0,8.89-6.3,16.33-14.66,18.11.1,1.02.15,2.06.15,3.11,0,.09,0,.19,0,.28,10.16-1.88,17.86-10.79,17.86-21.5,0-12.07-9.79-21.86-21.86-21.86Z"/>
          </g>
          <g>
            <path class="cls-25" d="M58.93,81.16c.66.62,1,1.46,1,2.51s-.33,1.88-1,2.51c-.66.62-1.43.93-2.3.93h-1.28v3.41h-2.72v-10.3h4c.87,0,1.64.31,2.3.93ZM56.82,84.27c.16-.16.25-.36.25-.59s-.08-.43-.25-.6c-.16-.16-.36-.25-.6-.25h-.87v1.68h.87c.23,0,.43-.08.6-.24Z"/>
            <path class="cls-25" d="M63.71,87.93h3.45v2.6h-6.17v-10.3h2.72v7.69Z"/>
            <path class="cls-25" d="M77.89,90.53h-2.79l-.72-1.92h-3.11l-.72,1.92h-2.79l3.78-10.3h2.57l3.78,10.3ZM72.1,86.33h1.46l-.74-2.55-.72,2.55Z"/>
            <path class="cls-25" d="M85.44,85.87v-5.64h2.74v10.3h-2.48l-4.46-5.64v5.64h-2.74v-10.3h2.48l4.47,5.64Z"/>
          </g>
        </g>
      </g>
      <rect class="cls-30" x="50.21" y="121.09" width="61.62" height="47.35" rx="6.81" ry="6.81"/>
      <path class="cls-37" d="M50.21,163.44c0-12.45,0-24.9,0-37.35.03-.06.08-.12.09-.18.66-2.91,3.3-4.81,6.75-4.81,15.98,0,31.97,0,47.95,0,3.87,0,6.82,2.5,6.82,5.79.01,11.92.01,23.84,0,35.76,0,.62-.12,1.26-.34,1.85-.9,2.41-3.45,3.94-6.53,3.94-6.46,0-12.92,0-19.37,0-9.47,0-18.93,0-28.4,0-2.74,0-4.83-1.01-6.15-3.04-.39-.6-.55-1.3-.81-1.95ZM74.23,152.13c-.68,2.66-2.59,4.27-5.69,4.83v9.8h24.96v-9.81c-3.24-.67-4.75-1.95-5.71-4.83h-13.57ZM68.52,132.56c3.17.58,5.05,2.21,5.71,4.83h13.58c.67-2.67,2.58-4.27,5.69-4.83v-9.8h-24.98v9.8ZM72.3,143.92c.03-.07.05-.1.05-.13,0-1.77,0-3.54,0-5.3,0-2.61-2.03-4.34-5.13-4.34-4.81,0-9.62,0-14.44,0h-.63v9.77h20.13ZM109.87,143.92v-9.75c-.1-.01-.16-.02-.22-.02-5.09,0-10.19-.02-15.28,0-2.56.01-4.63,1.81-4.67,3.99-.02,1.1,0,2.21,0,3.31,0,.81,0,1.62,0,2.45h20.18ZM52.16,155.37h.48c4.93,0,9.86,0,14.8,0,2.81,0,4.9-1.78,4.91-4.16.01-1.73,0-3.47,0-5.2,0-.13-.02-.26-.03-.4h-20.17v9.76ZM89.69,145.59c0,.21,0,.38,0,.54,0,1.63,0,3.26,0,4.9,0,2.62,2.03,4.34,5.12,4.35,4.81,0,9.62,0,14.44,0h.61v-9.79h-20.17ZM74.32,139.07v11.36h13.41v-11.36h-13.41ZM66.54,132.49v-9.76c-3.37,0-6.7-.07-10.02.02-2.41.07-4.32,1.87-4.37,3.92-.03,1.21,0,2.41,0,3.62,0,.73,0,1.45,0,2.2h14.4ZM109.91,132.51c0-.21,0-.38,0-.54,0-1.65,0-3.3,0-4.95,0-2.55-2.05-4.29-5.06-4.3-2.91,0-5.81,0-8.72,0-.21,0-.42,0-.61,0v9.79h14.39ZM66.55,157.04h-14.4c0,2.02-.07,4.01.02,6,.09,2.03,2.17,3.72,4.58,3.75,3.23.04,6.46,0,9.68,0,.03,0,.07-.03.13-.05v-9.69ZM95.49,166.8h.58c2.95,0,5.89,0,8.84,0,2.92,0,4.99-1.76,5-4.25,0-1.68,0-3.37,0-5.05,0-.16,0-.32,0-.47h-14.42v9.77Z"/>
      <text class="cls-27" transform="translate(501.12 64.32)"><tspan x="0" y="0">γ</tspan></text>
      <text class="cls-26" transform="translate(441.94 111.57)"><tspan x="0" y="0">Li</tspan><tspan class="cls-33" x="22.29" y="0">c</tspan><tspan x="38.54" y="0">ense</tspan></text>
    </g>
  </g>
</svg>