<svg xmlns="http://www.w3.org/2000/svg" width="26.127" height="35.714" viewBox="0 0 26.127 35.714"><defs><style>.a{fill:none;stroke:#fff;stroke-miterlimit:10;stroke-width:2px;}</style></defs><g transform="translate(-1206.026 -729.846)"><path d="M228.829,36.681q-5.515,0-8.714-3.038a10.024,10.024,0,0,1-3.2-7.583,9.391,9.391,0,0,1,2.1-6.183,13.613,13.613,0,0,1,6-3.963A12.586,12.586,0,0,1,221.73,13.1a5.391,5.391,0,0,1-1.152-3.415A5.846,5.846,0,0,1,223,4.831q2.423-1.863,7.119-1.864a18.257,18.257,0,0,1,4.6.517,14.966,14.966,0,0,1,3.931,1.7l-2.628,4.351a10.451,10.451,0,0,0-2.607-1.131,10.761,10.761,0,0,0-2.886-.377,4.309,4.309,0,0,0-2.392.528,1.706,1.706,0,0,0-.776,1.5,2.3,2.3,0,0,0,.959,1.756,35.1,35.1,0,0,0,4.815,2.854,17.094,17.094,0,0,1,5.967,4.912,10.4,10.4,0,0,1,1.939,6.162,10.267,10.267,0,0,1-3.242,8q-3.243,2.94-8.973,2.94m.043-5.063a5.166,5.166,0,0,0,4.006-1.572,5.971,5.971,0,0,0,1.443-4.2,6.486,6.486,0,0,0-1.206-3.78,10.74,10.74,0,0,0-3.9-3.156,9.2,9.2,0,0,0-4.061,2.65,6.592,6.592,0,0,0-1.584,4.5,5.841,5.841,0,0,0,1.4,3.909,4.839,4.839,0,0,0,3.9,1.648" transform="translate(990.11 727.879)"/><path class="a" d="M228.829,36.681q-5.515,0-8.714-3.038a10.024,10.024,0,0,1-3.2-7.583,9.391,9.391,0,0,1,2.1-6.183,13.613,13.613,0,0,1,6-3.963A12.586,12.586,0,0,1,221.73,13.1a5.391,5.391,0,0,1-1.152-3.415A5.846,5.846,0,0,1,223,4.831q2.423-1.863,7.119-1.864a18.257,18.257,0,0,1,4.6.517,14.966,14.966,0,0,1,3.931,1.7l-2.628,4.351a10.451,10.451,0,0,0-2.607-1.131,10.761,10.761,0,0,0-2.886-.377,4.309,4.309,0,0,0-2.392.528,1.706,1.706,0,0,0-.776,1.5,2.3,2.3,0,0,0,.959,1.756,35.1,35.1,0,0,0,4.815,2.854,17.094,17.094,0,0,1,5.967,4.912,10.4,10.4,0,0,1,1.939,6.162,10.267,10.267,0,0,1-3.242,8Q234.559,36.681,228.829,36.681Zm.043-5.063a5.166,5.166,0,0,0,4.006-1.572,5.971,5.971,0,0,0,1.443-4.2,6.486,6.486,0,0,0-1.206-3.78,10.74,10.74,0,0,0-3.9-3.156,9.2,9.2,0,0,0-4.061,2.65,6.592,6.592,0,0,0-1.584,4.5,5.841,5.841,0,0,0,1.4,3.909A4.839,4.839,0,0,0,228.872,31.619Z" transform="translate(990.11 727.879)"/></g></svg>