<?xml version="1.0" encoding="UTF-8"?>
<svg xmlns="http://www.w3.org/2000/svg" version="1.1" viewBox="0 0 520.89 433.25">
  <!-- Generator: Adobe Illustrator 28.6.0, SVG Export Plug-In . SVG Version: 1.2.0 Build 709)  -->
  <g>
    <g id="Layer_1">
      <path d="M299.75,106.22h-78.61c-68.6,0-124.21,55.61-124.21,124.21v157.75c0,24.89,20.18,45.07,45.07,45.07h236.89c24.89,0,45.07-20.18,45.07-45.07v-157.75c0-68.6-55.61-124.21-124.21-124.21ZM159.29,220.7c0-21.42,17.36-38.78,38.78-38.78s38.78,17.36,38.78,38.78-17.36,38.78-38.78,38.78-38.78-17.36-38.78-38.78ZM333.82,351.26c0,3.47-2.82,6.29-6.29,6.29h-134.17c-3.47,0-6.29-2.82-6.29-6.29v-6.29c0-3.47,2.82-6.29,6.29-6.29h134.17c3.47,0,6.29,2.82,6.29,6.29v6.29ZM322.81,259.48c-21.42,0-38.78-17.36-38.78-38.78s17.36-38.78,38.78-38.78,38.78,17.36,38.78,38.78-17.36,38.78-38.78,38.78Z"/>
      <rect x="248.39" y="48.57" width="24.11" height="57.65"/>
      <circle cx="260.44" cy="31.27" r="31.27"/>
      <rect x="423.96" y="230.43" width="42.19" height="24.11"/>
      <path d="M486.94,276.43c-18.72,0-33.95-15.23-33.95-33.95s15.23-33.95,33.95-33.95,33.95,15.23,33.95,33.95-15.23,33.95-33.95,33.95ZM486.94,221.92c-11.33,0-20.56,9.22-20.56,20.56s9.22,20.56,20.56,20.56,20.56-9.22,20.56-20.56-9.22-20.56-20.56-20.56Z"/>
      <rect x="54.74" y="230.43" width="42.19" height="24.11"/>
      <path d="M33.95,276.43c-18.72,0-33.95-15.23-33.95-33.95s15.23-33.95,33.95-33.95,33.95,15.23,33.95,33.95-15.23,33.95-33.95,33.95ZM33.95,221.92c-11.33,0-20.56,9.22-20.56,20.56s9.22,20.56,20.56,20.56,20.56-9.22,20.56-20.56-9.22-20.56-20.56-20.56Z"/>
    </g>
  </g>
</svg>