<?xml version="1.0" encoding="UTF-8"?>
<svg xmlns="http://www.w3.org/2000/svg" version="1.1" viewBox="0 0 444 343.35">
  <!-- Generator: Adobe Illustrator 28.6.0, SVG Export Plug-In . SVG Version: 1.2.0 Build 709)  -->
  <g>
    <g id="Layer_1">
      <g>
        <path d="M221.19,230.51c-12.06,0-24.11-2.43-35.35-7.28L0,142.93v167.96c0,18.37,14.89,33.26,33.26,33.26h377.22c18.37,0,33.26-14.89,33.26-33.26v-169.02l-187.03,81.28c-11.28,4.9-23.4,7.36-35.52,7.36Z"/>
        <path d="M410.48,69.46h-87.85V26.81c0-14.79-12.03-26.81-26.81-26.81h-147.89c-14.79,0-26.81,12.03-26.81,26.81v42.64H33.26C14.89,69.46,0,84.35,0,102.72v16.25l194.57,84.07c16.97,7.33,36.42,7.31,53.38-.06l195.79-85.09v-15.17c0-18.37-14.89-33.26-33.26-33.26ZM148.11,27h147.52v42.46h-147.52V27Z"/>
      </g>
    </g>
  </g>
</svg>