<?xml version="1.0" encoding="UTF-8"?>
<svg xmlns="http://www.w3.org/2000/svg" version="1.1" viewBox="0 0 645.82 559.66">
  <!-- Generator: Adobe Illustrator 28.6.0, SVG Export Plug-In . SVG Version: 1.2.0 Build 709)  -->
  <g>
    <g id="Layer_1">
      <path d="M223.8,112.07C100.2,112.07,0,212.27,0,335.87s100.2,223.8,223.8,223.8,223.79-100.2,223.79-223.8-100.2-223.79-223.79-223.79ZM290.28,408.75c-3.41,7.19-7.98,13.4-13.7,18.63-5.72,5.24-12.49,9.44-20.27,12.6-7.8,3.17-16.08,5.24-24.84,6.21v38.36h-23.75v-38.36c-10.47-.48-19.9-1.95-28.31-4.38-8.4-2.43-17.23-6.08-26.48-10.96l11.68-24.84c10.23,5.84,20.09,9.8,29.6,11.87,9.49,2.07,17.9,3.11,25.2,3.11,6.09,0,11.75-.67,16.98-2.01,5.24-1.33,9.86-3.41,13.89-6.21,4.01-2.8,7.17-6.39,9.49-10.78,2.32-4.38,3.48-9.5,3.48-15.34,0-10.23-3.61-18.02-10.78-23.38-7.19-5.35-17.72-10.23-31.6-14.61l-16.81-5.48c-7.8-2.43-14.86-5.3-21.19-8.58s-11.76-7.24-16.26-11.87c-4.51-4.62-8.04-9.92-10.6-15.89-2.55-5.97-3.83-12.84-3.83-20.64,0-18.51,5.48-33,16.45-43.47,10.96-10.47,25.8-16.56,44.57-18.26v-37.26h23.74v37.63c14.86,1.22,30.08,5.48,45.66,12.79l-9.49,24.84c-8.77-4.62-17.05-7.91-24.84-9.86-7.8-1.95-15.58-2.92-23.38-2.92-11.94,0-21.67,2.69-29.23,8.04-7.54,5.36-11.33,13.52-11.33,24.48,0,9.99,3.41,17.29,10.23,21.92,6.82,4.63,15.84,8.77,27.04,12.42l16.81,5.48c18.75,6.09,32.94,14.06,42.55,23.93,9.62,9.86,14.44,22.59,14.44,38.17,0,9.26-1.71,17.48-5.12,24.66Z"/>
      <path d="M525.43,241.72c-66.39,0-120.4-54.01-120.4-120.4S459.04.92,525.43.92s120.4,54.01,120.4,120.4-54.01,120.4-120.4,120.4ZM525.43,17.92c-57.01,0-103.4,46.38-103.4,103.4s46.38,103.4,103.4,103.4,103.4-46.38,103.4-103.4-46.38-103.4-103.4-103.4Z"/>
      <path d="M520.13,46.98h11.87v18.81c7.43.61,15.04,2.74,22.83,6.39l-4.75,12.42c-4.38-2.31-8.52-3.95-12.42-4.93-3.9-.97-7.79-1.46-11.69-1.46-5.97,0-10.84,1.34-14.61,4.02-3.77,2.68-5.66,6.76-5.66,12.24,0,4.99,1.71,8.65,5.12,10.96,3.41,2.31,7.92,4.38,13.52,6.21l8.4,2.74c9.38,3.05,16.47,7.03,21.28,11.96,4.81,4.93,7.22,11.29,7.22,19.09,0,4.63-.85,8.74-2.56,12.33-1.71,3.59-3.99,6.7-6.85,9.32-2.86,2.62-6.24,4.72-10.14,6.3-3.9,1.58-8.04,2.62-12.42,3.1v19.18h-11.87v-19.18c-5.24-.24-9.95-.97-14.16-2.19-4.2-1.22-8.61-3.04-13.24-5.48l5.84-12.42c5.12,2.92,10.05,4.9,14.8,5.94,4.75,1.04,8.95,1.55,12.6,1.55,3.05,0,5.87-.33,8.49-1,2.62-.67,4.93-1.7,6.94-3.11,2.01-1.4,3.59-3.2,4.75-5.39,1.16-2.19,1.74-4.75,1.74-7.67,0-5.11-1.8-9.01-5.39-11.69-3.59-2.68-8.86-5.11-15.8-7.31l-8.4-2.74c-3.9-1.22-7.43-2.65-10.59-4.29-3.17-1.64-5.88-3.62-8.13-5.94-2.26-2.31-4.02-4.96-5.3-7.95-1.27-2.98-1.92-6.42-1.92-10.32,0-9.25,2.74-16.5,8.22-21.74,5.48-5.23,12.9-8.28,22.28-9.13v-18.63Z"/>
    </g>
  </g>
</svg>