<?xml version="1.0" encoding="utf-8"?>
<!-- Generator: Adobe Illustrator 27.2.0, SVG Export Plug-In . SVG Version: 6.00 Build 0)  -->
<svg version="1.1" id="Capa_1" xmlns="http://www.w3.org/2000/svg" xmlns:xlink="http://www.w3.org/1999/xlink" x="0px" y="0px"
	 viewBox="0 0 200 200" style="enable-background:new 0 0 200 200;" xml:space="preserve">
<style type="text/css">
	.st0{fill:url(#SVGID_1_);}
	.st1{fill:url(#SVGID_00000181063113570242290650000004184093889841536665_);}
	.st2{fill:url(#SVGID_00000055689408868646422060000009137925212485745803_);}
	.st3{fill:#FFFFFF;}
	.st4{fill:url(#SVGID_00000178167793285553954200000018303950122337443501_);}
	.st5{fill:url(#SVGID_00000168832974192056980920000015019833431221336208_);}
	.st6{fill:url(#SVGID_00000082366896618167544260000016198414339579258547_);}
	.st7{fill:url(#SVGID_00000021832275929757384960000010239580624916568241_);}
	.st8{fill:url(#SVGID_00000100353651011925618390000003993573401955868061_);}
	.st9{fill:url(#SVGID_00000162322241174528823740000007666814655316757938_);}
	.st10{fill:url(#SVGID_00000134247278860321191870000004928129663282430887_);}
	.st11{fill:url(#SVGID_00000172399599927098652290000017827481002454889133_);}
	.st12{fill:url(#SVGID_00000126299799887345685430000001220059144642010548_);}
	.st13{fill:url(#SVGID_00000170991797878288712480000005706437616392289169_);}
	.st14{fill:url(#SVGID_00000160167090725687201930000004525872442257528231_);}
	.st15{fill:url(#SVGID_00000036968458518894011510000017004053328832905104_);}
	.st16{fill:url(#SVGID_00000048463760976399331130000009513771778990168729_);}
	.st17{fill:url(#SVGID_00000034089364289014704990000014432776669621561522_);}
	.st18{fill:url(#SVGID_00000157999738495359837450000007982803663743886480_);}
	.st19{fill:url(#SVGID_00000049921353233848387240000004783130255122268049_);}
	.st20{fill:url(#SVGID_00000148652475180174301240000001022752106199766422_);}
	.st21{fill:url(#SVGID_00000168839821964640300030000006524931428450441349_);}
	.st22{fill:url(#SVGID_00000021829979754638009340000006727416355542206890_);}
	.st23{fill:url(#SVGID_00000137090350526948085480000003805455935207231396_);}
	.st24{fill:url(#SVGID_00000066476253134661798500000004116611451585485460_);}
	.st25{fill:url(#SVGID_00000060007929231220268890000004642850652857335732_);}
	.st26{fill:url(#SVGID_00000150818071583950495490000011063032661861624745_);}
	.st27{fill:url(#SVGID_00000020393325208619719630000009211013676622954647_);}
	.st28{fill:url(#SVGID_00000160904950191340201570000007058176055586707598_);}
	.st29{fill:url(#SVGID_00000176039202105710459070000010532121696459873443_);}
	.st30{fill:url(#SVGID_00000041999657459324809790000005309570561404667023_);}
	.st31{fill:url(#SVGID_00000166648111543382975580000015686257036771928203_);}
	.st32{fill:url(#SVGID_00000166636012245960591870000011719304442921141426_);}
	.st33{fill:url(#SVGID_00000010996621228901802140000007879885332714417853_);}
	.st34{fill:url(#SVGID_00000181072320826582687260000013550380383588404635_);}
	.st35{fill:url(#SVGID_00000178897926980949083290000011350095989150946708_);}
	.st36{fill:url(#SVGID_00000152228150874837061460000001672655574999898291_);}
	.st37{fill:url(#SVGID_00000013891602404252367350000010187168714378952630_);}
	.st38{fill:url(#SVGID_00000101811551764352707110000013053920711677860262_);}
	.st39{fill:url(#SVGID_00000074430859710335856480000015554717045312080306_);}
	.st40{fill:url(#SVGID_00000031193378608285097190000014864902065120202934_);}
	.st41{fill:url(#SVGID_00000163044453479295637740000003105743845744159134_);}
	.st42{fill:url(#SVGID_00000015326251904204197680000000049816548460998826_);}
	.st43{fill:url(#SVGID_00000123414524077909559250000016020460556336756639_);}
	.st44{fill:url(#SVGID_00000055693669620939195600000014688058642903999139_);}
</style>
<g>
	<g>
		<g>
			<path d="M111.52,35.13c22.72-14.11,52.57-7.13,66.68,15.59c14.11,22.72,7.13,52.57-15.59,66.68c0,0-5.48,4.4-17.24,5.1
				l-0.16,11.06c30.51-2.2,50.38-23.54,50.38-56.52c0-32.98-26.73-59.71-59.71-59.71c0,0-37.82-0.29-51.65,34.4l8.3,3.25
				C92.53,54.97,101.49,41.71,111.52,35.13z"/>
		</g>
	</g>
	<g>
		<path d="M15.06,65.54c0,0,42.61-36.45,99.31,3.13c56.5,51.07,11.28,112.78,11.28,112.78l-13.78-0.63c0,0,49.6-55.87-5.95-104.64
			C53.49,33.69,4.41,88.73,4.41,88.73V18.93h56.9v9.39H14.75L15.06,65.54z"/>
	</g>
	<g>
		<g>
			<path d="M23.88,157.73c1.78,1.67,2.67,3.91,2.67,6.74c0,2.81-0.89,5.05-2.67,6.72c-1.78,1.67-3.84,2.5-6.17,2.5h-3.42v9.15h-7.3
				v-27.61h10.73C20.04,155.23,22.1,156.06,23.88,157.73z M18.21,166.06c0.44-0.43,0.66-0.96,0.66-1.59c0-0.63-0.22-1.16-0.66-1.6
				c-0.44-0.44-0.97-0.66-1.6-0.66h-2.33v4.5h2.33C17.24,166.71,17.78,166.49,18.21,166.06z"/>
			<path d="M36.7,175.85h9.24v6.98H29.39v-27.61h7.3V175.85z"/>
			<path d="M73.22,182.83h-7.49l-1.92-5.14h-8.34l-1.92,5.14h-7.47l10.12-27.61h6.89L73.22,182.83z M57.7,171.58h3.92l-1.98-6.83
				L57.7,171.58z"/>
			<path d="M93.47,170.34v-15.11h7.34v27.61h-6.64L82.2,167.72v15.11h-7.34v-27.61h6.64L93.47,170.34z"/>
		</g>
		<g>
			<path d="M23.88,157.73c1.78,1.67,2.67,3.91,2.67,6.74c0,2.81-0.89,5.05-2.67,6.72c-1.78,1.67-3.84,2.5-6.17,2.5h-3.42v9.15h-7.3
				v-27.61h10.73C20.04,155.23,22.1,156.06,23.88,157.73z M18.21,166.06c0.44-0.43,0.66-0.96,0.66-1.59c0-0.63-0.22-1.16-0.66-1.6
				c-0.44-0.44-0.97-0.66-1.6-0.66h-2.33v4.5h2.33C17.24,166.71,17.78,166.49,18.21,166.06z"/>
			<path d="M36.7,175.85h9.24v6.98H29.39v-27.61h7.3V175.85z"/>
			<path d="M73.22,182.83h-7.49l-1.92-5.14h-8.34l-1.92,5.14h-7.47l10.12-27.61h6.89L73.22,182.83z M57.7,171.58h3.92l-1.98-6.83
				L57.7,171.58z"/>
			<path d="M93.47,170.34v-15.11h7.34v27.61h-6.64L82.2,167.72v15.11h-7.34v-27.61h6.64L93.47,170.34z"/>
		</g>
	</g>
	<g>
		
			<radialGradient id="SVGID_1_" cx="-25287.0762" cy="-1463.2512" r="48.8493" gradientTransform="matrix(0.0445 0.035 -0.561 0.7121 392.3804 1980.9155)" gradientUnits="userSpaceOnUse">
			<stop  offset="0" style="stop-color:#FFFFFF"/>
			<stop  offset="1" style="stop-color:#FFFFFF;stop-opacity:0"/>
		</radialGradient>
		<path class="st0" d="M90.9,54.9C75.77,74.12,62.52,88.93,61.32,87.98c-1.2-0.94,10.1-17.29,25.23-36.5
			c15.14-19.22,28.38-34.03,29.58-33.08C117.34,19.34,106.04,35.69,90.9,54.9z"/>
		
			<radialGradient id="SVGID_00000083061490993953308730000003728766982324523695_" cx="-57965.1328" cy="10838.2246" r="48.8493" gradientTransform="matrix(-0.0565 3.801377e-03 -0.0608 -0.9045 -2526.4141 10076.7363)" gradientUnits="userSpaceOnUse">
			<stop  offset="0" style="stop-color:#FFFFFF"/>
			<stop  offset="1" style="stop-color:#FFFFFF;stop-opacity:0"/>
		</radialGradient>
		<path style="fill:url(#SVGID_00000083061490993953308730000003728766982324523695_);" d="M85.97,53.38
			C84.33,28.97,84.23,9.1,85.76,9c1.52-0.1,4.09,19.6,5.73,44c1.64,24.41,1.74,44.27,0.21,44.38
			C90.18,97.48,87.61,77.78,85.97,53.38z"/>
		
			<radialGradient id="SVGID_00000142895960400854531280000006362828409819454103_" cx="26224.4043" cy="-926.1375" r="48.8522" gradientTransform="matrix(0.035 -0.0445 1.1368 0.8955 222.9925 2048.7266)" gradientUnits="userSpaceOnUse">
			<stop  offset="0" style="stop-color:#FFFFFF"/>
			<stop  offset="1" style="stop-color:#FFFFFF;stop-opacity:0"/>
		</radialGradient>
		<path style="fill:url(#SVGID_00000142895960400854531280000006362828409819454103_);" d="M90.44,51.02
			c30.67,24.16,54.77,44.72,53.83,45.92c-0.94,1.2-26.58-17.42-57.25-41.58C56.34,31.2,32.24,10.64,33.19,9.44
			C34.13,8.24,59.77,26.86,90.44,51.02z"/>
		
			<radialGradient id="SVGID_00000118360185664779795680000015588521552767232134_" cx="10165.8896" cy="2254.2344" r="48.8522" gradientTransform="matrix(-7.244274e-03 -0.0561 1.4352 -0.1851 -3072.9563 1041.2822)" gradientUnits="userSpaceOnUse">
			<stop  offset="0" style="stop-color:#FFFFFF"/>
			<stop  offset="1" style="stop-color:#FFFFFF;stop-opacity:0"/>
		</radialGradient>
		<path style="fill:url(#SVGID_00000118360185664779795680000015588521552767232134_);" d="M88.38,50.45
			c38.73-5,70.28-7.82,70.47-6.3c0.2,1.51-31.04,6.79-69.77,11.79c-38.73,5-70.28,7.82-70.47,6.3
			C18.41,60.72,49.65,55.44,88.38,50.45z"/>
		
			<radialGradient id="SVGID_00000071547825466448812720000007729423069299525051_" cx="-628.6582" cy="-1961.4873" r="15.7051" gradientTransform="matrix(0.993 -0.1179 0.1179 0.993 943.2787 1927.9769)" gradientUnits="userSpaceOnUse">
			<stop  offset="0" style="stop-color:#FFFFFF"/>
			<stop  offset="0.0426" style="stop-color:#D8D8D8;stop-opacity:0.9574"/>
			<stop  offset="0.0995" style="stop-color:#ABABAB;stop-opacity:0.9005"/>
			<stop  offset="0.162" style="stop-color:#828282;stop-opacity:0.838"/>
			<stop  offset="0.2289" style="stop-color:#5F5F5F;stop-opacity:0.7711"/>
			<stop  offset="0.3012" style="stop-color:#414141;stop-opacity:0.6988"/>
			<stop  offset="0.3807" style="stop-color:#292929;stop-opacity:0.6193"/>
			<stop  offset="0.4704" style="stop-color:#171717;stop-opacity:0.5296"/>
			<stop  offset="0.5764" style="stop-color:#0A0A0A;stop-opacity:0.4236"/>
			<stop  offset="0.714" style="stop-color:#020202;stop-opacity:0.286"/>
			<stop  offset="1" style="stop-color:#000000;stop-opacity:0"/>
		</radialGradient>
		<path style="fill:url(#SVGID_00000071547825466448812720000007729423069299525051_);" d="M103.46,52.48
			c1.02,8.61-5.13,16.42-13.74,17.45c-8.61,1.02-16.42-5.13-17.45-13.74c-1.02-8.61,5.13-16.42,13.74-17.45
			C94.63,37.71,102.44,43.86,103.46,52.48z"/>
		
			<radialGradient id="SVGID_00000011006059400937616590000003138818743045558160_" cx="-628.1145" cy="-1963.6176" r="15.705" gradientTransform="matrix(0.993 -0.1179 0.1179 0.993 943.2787 1927.9769)" gradientUnits="userSpaceOnUse">
			<stop  offset="0" style="stop-color:#FFFFFF"/>
			<stop  offset="0.0426" style="stop-color:#D8D8D8;stop-opacity:0.9574"/>
			<stop  offset="0.0995" style="stop-color:#ABABAB;stop-opacity:0.9005"/>
			<stop  offset="0.162" style="stop-color:#828282;stop-opacity:0.838"/>
			<stop  offset="0.2289" style="stop-color:#5F5F5F;stop-opacity:0.7711"/>
			<stop  offset="0.3012" style="stop-color:#414141;stop-opacity:0.6988"/>
			<stop  offset="0.3807" style="stop-color:#292929;stop-opacity:0.6193"/>
			<stop  offset="0.4704" style="stop-color:#171717;stop-opacity:0.5296"/>
			<stop  offset="0.5764" style="stop-color:#0A0A0A;stop-opacity:0.4236"/>
			<stop  offset="0.714" style="stop-color:#020202;stop-opacity:0.286"/>
			<stop  offset="1" style="stop-color:#000000;stop-opacity:0"/>
		</radialGradient>
		<path style="fill:url(#SVGID_00000011006059400937616590000003138818743045558160_);" d="M103.75,50.3
			c1.02,8.61-5.13,16.42-13.74,17.45C81.39,68.77,73.58,62.61,72.56,54c-1.02-8.61,5.13-16.42,13.74-17.45
			C94.91,35.53,102.73,41.69,103.75,50.3z"/>
		
			<radialGradient id="SVGID_00000137134428056653071990000012475824427947100332_" cx="-626.3163" cy="-1963.6691" r="15.7051" gradientTransform="matrix(0.993 -0.1179 0.1179 0.993 943.2787 1927.9769)" gradientUnits="userSpaceOnUse">
			<stop  offset="0" style="stop-color:#FFFFFF"/>
			<stop  offset="0.0426" style="stop-color:#D8D8D8;stop-opacity:0.9574"/>
			<stop  offset="0.0995" style="stop-color:#ABABAB;stop-opacity:0.9005"/>
			<stop  offset="0.162" style="stop-color:#828282;stop-opacity:0.838"/>
			<stop  offset="0.2289" style="stop-color:#5F5F5F;stop-opacity:0.7711"/>
			<stop  offset="0.3012" style="stop-color:#414141;stop-opacity:0.6988"/>
			<stop  offset="0.3807" style="stop-color:#292929;stop-opacity:0.6193"/>
			<stop  offset="0.4704" style="stop-color:#171717;stop-opacity:0.5296"/>
			<stop  offset="0.5764" style="stop-color:#0A0A0A;stop-opacity:0.4236"/>
			<stop  offset="0.714" style="stop-color:#020202;stop-opacity:0.286"/>
			<stop  offset="1" style="stop-color:#000000;stop-opacity:0"/>
		</radialGradient>
		<path style="fill:url(#SVGID_00000137134428056653071990000012475824427947100332_);" d="M105.53,50.03
			c1.02,8.61-5.13,16.42-13.74,17.45c-8.61,1.02-16.42-5.13-17.45-13.74c-1.02-8.61,5.13-16.42,13.74-17.45
			C96.69,35.27,104.5,41.42,105.53,50.03z"/>
		
			<radialGradient id="SVGID_00000139288132133946830920000011723218080910178216_" cx="-628.835" cy="-1962.6611" r="15.7051" gradientTransform="matrix(0.993 -0.1179 0.1179 0.993 943.2787 1927.9769)" gradientUnits="userSpaceOnUse">
			<stop  offset="0" style="stop-color:#FFFFFF"/>
			<stop  offset="0.0426" style="stop-color:#D8D8D8;stop-opacity:0.9574"/>
			<stop  offset="0.0995" style="stop-color:#ABABAB;stop-opacity:0.9005"/>
			<stop  offset="0.162" style="stop-color:#828282;stop-opacity:0.838"/>
			<stop  offset="0.2289" style="stop-color:#5F5F5F;stop-opacity:0.7711"/>
			<stop  offset="0.3012" style="stop-color:#414141;stop-opacity:0.6988"/>
			<stop  offset="0.3807" style="stop-color:#292929;stop-opacity:0.6193"/>
			<stop  offset="0.4704" style="stop-color:#171717;stop-opacity:0.5296"/>
			<stop  offset="0.5764" style="stop-color:#0A0A0A;stop-opacity:0.4236"/>
			<stop  offset="0.714" style="stop-color:#020202;stop-opacity:0.286"/>
			<stop  offset="1" style="stop-color:#000000;stop-opacity:0"/>
		</radialGradient>
		<path style="fill:url(#SVGID_00000139288132133946830920000011723218080910178216_);" d="M103.15,51.33
			c1.02,8.61-5.13,16.42-13.74,17.45c-8.61,1.02-16.42-5.13-17.45-13.74c-1.02-8.61,5.13-16.42,13.74-17.45
			C94.31,36.57,102.12,42.72,103.15,51.33z"/>
		
			<radialGradient id="SVGID_00000056406819720122104960000009215809662021265808_" cx="-627.6654" cy="-1962.5154" r="30.9527" gradientTransform="matrix(0.993 -0.1179 0.1179 0.993 943.2787 1927.9769)" gradientUnits="userSpaceOnUse">
			<stop  offset="0" style="stop-color:#FFFFFF"/>
			<stop  offset="0.147" style="stop-color:#FFFFFF;stop-opacity:0.853"/>
			<stop  offset="1" style="stop-color:#FFFFFF;stop-opacity:0"/>
		</radialGradient>
		<path style="fill:url(#SVGID_00000056406819720122104960000009215809662021265808_);" d="M119.46,49.54
			c2.02,16.97-10.11,32.37-27.09,34.39C75.4,85.94,60.01,73.82,57.99,56.84C55.98,39.87,68.1,24.47,85.08,22.46
			C102.05,20.44,117.45,32.57,119.46,49.54z"/>
	</g>
	<g>
		
			<radialGradient id="SVGID_00000155829168851432467420000006129871194590787007_" cx="-29190.6523" cy="-221.9064" r="48.8493" gradientTransform="matrix(0.0514 0.0238 -0.3811 0.8225 1503.5546 930.2641)" gradientUnits="userSpaceOnUse">
			<stop  offset="0" style="stop-color:#FFFFFF"/>
			<stop  offset="1" style="stop-color:#FFFFFF;stop-opacity:0"/>
		</radialGradient>
		<path style="fill:url(#SVGID_00000155829168851432467420000006129871194590787007_);" d="M91.24,54.35
			C80.96,76.55,71.5,94.02,70.11,93.38c-1.39-0.64,5.83-19.15,16.11-41.35C96.5,29.83,105.96,12.36,107.35,13
			C108.73,13.65,101.52,32.16,91.24,54.35z"/>
		
			<radialGradient id="SVGID_00000029741065427535998350000017987960564573004479_" cx="-41746.1523" cy="10080.2559" r="48.8493" gradientTransform="matrix(-0.0541 0.0168 -0.2683 -0.8659 536.0964 9481.6201)" gradientUnits="userSpaceOnUse">
			<stop  offset="0" style="stop-color:#FFFFFF"/>
			<stop  offset="1" style="stop-color:#FFFFFF;stop-opacity:0"/>
		</radialGradient>
		<path style="fill:url(#SVGID_00000029741065427535998350000017987960564573004479_);" d="M86.09,54.01
			c-7.24-23.36-11.93-42.67-10.47-43.12c1.46-0.45,8.51,18.12,15.75,41.49c7.24,23.36,11.93,42.67,10.47,43.12
			C100.38,95.95,93.33,77.37,86.09,54.01z"/>
		
			<radialGradient id="SVGID_00000047057009728667505520000013026604719667928192_" cx="6345.1865" cy="-1078.9182" r="48.8522" gradientTransform="matrix(0.0238 -0.0514 1.3131 0.6083 1354.4402 1035.4092)" gradientUnits="userSpaceOnUse">
			<stop  offset="0" style="stop-color:#FFFFFF"/>
			<stop  offset="1" style="stop-color:#FFFFFF;stop-opacity:0"/>
		</radialGradient>
		<path style="fill:url(#SVGID_00000047057009728667505520000013026604719667928192_);" d="M89.89,50.68
			c35.43,16.41,63.63,30.84,62.99,32.23S123,72.11,87.57,55.7C52.14,39.29,23.93,24.86,24.58,23.47
			C25.22,22.09,54.46,34.27,89.89,50.68z"/>
		
			<radialGradient id="SVGID_00000057870734238020197030000012375365463546873474_" cx="-959.4874" cy="1591.9069" r="48.8522" gradientTransform="matrix(-0.02 -0.0529 1.3535 -0.512 -2085.1431 817.4852)" gradientUnits="userSpaceOnUse">
			<stop  offset="0" style="stop-color:#FFFFFF"/>
			<stop  offset="1" style="stop-color:#FFFFFF;stop-opacity:0"/>
		</radialGradient>
		<path style="fill:url(#SVGID_00000057870734238020197030000012375365463546873474_);" d="M87.75,50.6
			c36.52-13.82,66.57-23.86,67.11-22.43s-28.63,13.79-65.15,27.6C53.19,69.59,23.14,79.64,22.6,78.21
			C22.06,76.78,51.23,64.42,87.75,50.6z"/>
		
			<radialGradient id="SVGID_00000038379951251050411780000015673594623782500263_" cx="-1580.694" cy="-1321.964" r="15.7051" gradientTransform="matrix(0.9388 -0.3443 0.3443 0.9388 2027.2772 751.3614)" gradientUnits="userSpaceOnUse">
			<stop  offset="0" style="stop-color:#FFFFFF"/>
			<stop  offset="0.147" style="stop-color:#FFFFFF;stop-opacity:0.853"/>
			<stop  offset="1" style="stop-color:#FFFFFF;stop-opacity:0"/>
		</radialGradient>
		<path style="fill:url(#SVGID_00000038379951251050411780000015673594623782500263_);" d="M102.9,49.09
			c2.99,8.14-1.19,17.16-9.34,20.15c-8.14,2.99-17.17-1.19-20.15-9.34c-2.99-8.14,1.19-17.17,9.34-20.15
			C90.89,36.77,99.91,40.95,102.9,49.09z"/>
		
			<radialGradient id="SVGID_00000055697461005418754720000016093987871334474371_" cx="-1580.1503" cy="-1324.0944" r="15.705" gradientTransform="matrix(0.9388 -0.3443 0.3443 0.9388 2027.2772 751.3614)" gradientUnits="userSpaceOnUse">
			<stop  offset="0" style="stop-color:#FFFFFF"/>
			<stop  offset="0.147" style="stop-color:#FFFFFF;stop-opacity:0.853"/>
			<stop  offset="1" style="stop-color:#FFFFFF;stop-opacity:0"/>
		</radialGradient>
		<path style="fill:url(#SVGID_00000055697461005418754720000016093987871334474371_);" d="M102.67,46.9
			c2.99,8.14-1.19,17.17-9.34,20.15c-8.14,2.99-17.17-1.19-20.15-9.34c-2.99-8.14,1.19-17.17,9.34-20.15
			C90.66,34.58,99.69,38.76,102.67,46.9z"/>
		
			<radialGradient id="SVGID_00000146496601821975499840000012058510287596984220_" cx="-1578.3521" cy="-1324.1459" r="15.7051" gradientTransform="matrix(0.9388 -0.3443 0.3443 0.9388 2027.2772 751.3614)" gradientUnits="userSpaceOnUse">
			<stop  offset="0" style="stop-color:#FFFFFF"/>
			<stop  offset="0.147" style="stop-color:#FFFFFF;stop-opacity:0.853"/>
			<stop  offset="1" style="stop-color:#FFFFFF;stop-opacity:0"/>
		</radialGradient>
		<path style="fill:url(#SVGID_00000146496601821975499840000012058510287596984220_);" d="M104.34,46.24
			c2.99,8.14-1.19,17.17-9.34,20.15c-8.14,2.99-17.17-1.19-20.15-9.34c-2.99-8.14,1.19-17.17,9.34-20.15
			C92.33,33.91,101.36,38.09,104.34,46.24z"/>
		
			<radialGradient id="SVGID_00000087405009056255161400000009415926064479462809_" cx="-1580.8707" cy="-1323.1379" r="15.7051" gradientTransform="matrix(0.9388 -0.3443 0.3443 0.9388 2027.2772 751.3614)" gradientUnits="userSpaceOnUse">
			<stop  offset="0" style="stop-color:#FFFFFF"/>
			<stop  offset="0.147" style="stop-color:#FFFFFF;stop-opacity:0.853"/>
			<stop  offset="1" style="stop-color:#FFFFFF;stop-opacity:0"/>
		</radialGradient>
		<path style="fill:url(#SVGID_00000087405009056255161400000009415926064479462809_);" d="M102.32,48.05
			c2.99,8.14-1.19,17.17-9.34,20.15c-8.14,2.99-17.17-1.19-20.15-9.34c-2.99-8.14,1.19-17.17,9.34-20.15
			C90.32,35.73,99.34,39.91,102.32,48.05z"/>
		
			<radialGradient id="SVGID_00000148658233814497321710000012920132871475043504_" cx="-1579.7012" cy="-1322.9921" r="30.9527" gradientTransform="matrix(0.9388 -0.3443 0.3443 0.9388 2027.2772 751.3614)" gradientUnits="userSpaceOnUse">
			<stop  offset="0" style="stop-color:#FFFFFF"/>
			<stop  offset="0.147" style="stop-color:#FFFFFF;stop-opacity:0.853"/>
			<stop  offset="1" style="stop-color:#FFFFFF;stop-opacity:0"/>
		</radialGradient>
		<path style="fill:url(#SVGID_00000148658233814497321710000012920132871475043504_);" d="M117.79,42.53
			c5.89,16.05-2.35,33.83-18.4,39.72c-16.05,5.89-33.83-2.35-39.72-18.4c-5.89-16.05,2.35-33.83,18.4-39.72
			C94.12,18.25,111.9,26.48,117.79,42.53z"/>
	</g>
</g>
</svg>
